<svg xmlns="http://www.w3.org/2000/svg" width="563.351" height="503.128" viewBox="0 0 563.351 503.128">
  <g id="confuse_women" data-name="confuse women" transform="translate(-139.579 -184.77)">
    <g id="OBJECTS" transform="translate(139.579 184.77)">
      <path id="Path_332" data-name="Path 332" d="M830.565,1118.478a90.831,90.831,0,0,0-48.167-47.05c-22.138-8.964-47.559-5.7-70.878-8.7-20.261-2.611-34.863-11.652-46.959-27.726-11.587-15.4-21.973-32.459-40.9-39.585-14.97-5.627-31.989-4.067-46.867,1.8-27.424,10.788-48.132,33.77-65.572,56.661-15.922,20.907-28.908,43.8-58.358,44.543s-57.525-16.056-87.193-11.606c-39.218,5.887-71.868,38.533-78.718,77.4-6.415,36.423,9.679,71.753,37.329,92.51H799.532C834.372,1219.781,852.656,1168.705,830.565,1118.478Z" transform="translate(-283.525 -754.552)" fill="#f7f0e3"/>
      <path id="Path_333" data-name="Path 333" d="M564.6,1409.962h1.307a100.336,100.336,0,0,0,20.712-35.552c7.317-21.755,7.011-44.589-.868-64.291-3.983-9.939-9.733-19.236-15.291-28.212-5.639-9.1-11.468-18.51-15.425-28.6a63.962,63.962,0,0,1-3.574-13.215c-.325-.042-.654-.076-.982-.115a64.657,64.657,0,0,0,3.666,13.682c3.987,10.165,9.844,19.615,15.505,28.751,5.535,8.941,11.262,18.185,15.215,28.063,7.795,19.5,8.1,42.092.849,63.634A99.221,99.221,0,0,1,564.6,1409.962Z" transform="translate(-447.182 -907.79)" fill="#fff"/>
      <path id="Path_334" data-name="Path 334" d="M1082.419,1227.127c9.794,2.087,19.232,3.96,28.357,5.138.157-.3.306-.608.463-.91-9.2-1.17-18.731-3.058-28.617-5.161-15.062-3.211-31.346-6.682-47.532-6.682a84.327,84.327,0,0,0-29.55,4.882,60.187,60.187,0,0,0-10.459,5.084c-8.651-3.689-17.348-7.714-25.96-12.13,6.25-4.71,12.565-9.324,18.953-13.781,47.4-33.094,91.131-51.856,133.387-57.181-.084-.31-.172-.619-.26-.929-42.371,5.352-86.207,24.179-133.678,57.341-6.5,4.553-12.967,9.266-19.347,14.075a320.324,320.324,0,0,1-28.525-16.575c-16.8-11.01-36.79-26.725-54.245-47.6,67.663-7.592,136.51-17.153,192.751-54.738,2.133-1.43,4.5-3.112,6.95-5.019-.271-.195-.543-.382-.818-.573-2.347,1.82-4.614,3.44-6.663,4.8-56.225,37.578-125.222,47.066-192.953,54.665a185.712,185.712,0,0,1-31.014-52.754c-11.927-31.6-11.3-62.613,1.732-85.083.566-.979,1.147-1.938,1.778-2.89-.543.252-1.082.512-1.621.765q-.5.814-.986,1.64c-13.173,22.722-13.827,54.031-1.793,85.9a186.486,186.486,0,0,0,30.773,52.517q-5.883.661-11.751,1.3c-14.106,1.56-28.671,3.169-42.853,4.97-5.168.669-10.425,1.445-15.673,2.416-11.216-23.667-23.533-46.752-39.455-66.554-.226.229-.459.447-.688.673,15.784,19.649,28.025,42.566,39.172,66.065-22.818,4.35-44.971,12.531-56.8,31.568-11.048,17.78-11.036,42.356.031,73.045.382,1.063.765,2.11,1.177,3.15h1.021c-.436-1.147-.872-2.294-1.3-3.475-10.964-30.4-11-54.7-.119-72.216,11.69-18.812,33.721-26.882,56.409-31.182,3.995,8.4,7.818,16.832,11.6,25.219l.413.914c13.2,29.137,26.851,57.253,44.726,80.752h1.193c-18.04-23.541-31.767-51.829-45.047-81.146l-.413-.914c-3.769-8.318-7.561-16.69-11.468-24.993,5.13-.948,10.287-1.709,15.356-2.359,14.144-1.823,28.732-3.44,42.815-4.97l12.374-1.372c17.623,21.209,37.845,37.142,54.86,48.278a321.1,321.1,0,0,0,28.2,16.438c-16.258,12.294-32.073,25.23-47.509,37.845q-8.028,6.56-16.2,13.211h1.529q7.714-6.262,15.291-12.474c15.547-12.718,31.473-25.75,47.846-38.117,8.567,4.408,17.2,8.41,25.819,12.107a71.22,71.22,0,0,0-27.165,33.155c-.726,1.762-1.361,3.54-1.946,5.329h1.005c.554-1.667,1.147-3.322,1.823-4.969,5.818-14.114,15.49-25.7,27.352-33.063,24.053,10.218,47.689,17.8,68,23.812l.765.226c8.559,2.531,17.313,5.126,25.054,9.293.218-.249.436-.493.65-.742-7.867-4.27-16.751-6.9-25.437-9.465l-.765-.226c-20.1-5.952-43.469-13.441-67.281-23.51a59.5,59.5,0,0,1,9.706-4.648C1030.667,1216.1,1058.164,1221.959,1082.419,1227.127Z" transform="translate(-568.71 -766.406)" fill="#fff"/>
      <path id="Path_335" data-name="Path 335" d="M351.246,1359.583c4.205,17.279,2.336,35.934-5.168,51.2a88.143,88.143,0,0,1-20.758,26.809c.172.271.352.539.528.807a89.091,89.091,0,0,0,21.086-27.2c7.6-15.455,9.515-34.351,5.241-51.844-3.341-13.666-10.054-25.23-19.328-33.617-.206.241-.413.486-.615.73C341.349,1334.72,347.955,1346.119,351.246,1359.583Z" transform="translate(-308.095 -960.767)" fill="#fff"/>
      <path id="Path_336" data-name="Path 336" d="M861.848,829.434c8.311,8.517,12.042,22.837,7.451,36.041-4.446,12.795-14.19,23.391-25.9,30.2-9.419,5.482-21.706,8.506-30.964,2.764-6.923-4.289-10.513-12.707-10.7-20.845s2.538-16.079,5.921-23.483c4.771-10.444,11.189-20.566,20.754-26.916C841.587,818.455,853.82,821.253,861.848,829.434Z" transform="translate(-602.382 -649.49)" fill="#f7f0e3"/>
      <path id="Path_337" data-name="Path 337" d="M558.87,401.781H489.93V371h68.94Zm-67.506-1.434h66.072V372.414H491.364Z" transform="translate(-409.778 -371)" fill="#f7f7f7"/>
      <path id="Path_338" data-name="Path 338" d="M441.569,478.8H372.61V448h68.959Zm-67.506-1.434h66.053V449.434H374.044Z" transform="translate(-337.307 -418.565)" fill="#f7f7f7"/>
      <path id="Path_339" data-name="Path 339" d="M1241.243,478.653a106.467,106.467,0,0,0-23.556-40.93q-16.858-18.667-46.079-30.88-29.187-12.2-74.161-12.2a290.085,290.085,0,0,0-73.133,9.679Q987.06,414,959.59,431.973L983.4,497.342l-12.76,10.321,18.506,5.44q27.4-14.339,49.925-20.826a171.168,171.168,0,0,1,47.819-6.453q25.307,0,38.319,12.2,13.011,12.237,13,29.435a56.415,56.415,0,0,1-13.345,36.977q-13.345,16.151-29.55,32.681-11.235,11.468-21.79,23.678a170,170,0,0,0-18.632,26.228,142.51,142.51,0,0,0-13,30.154,123.3,123.3,0,0,0-4.92,36.255c0,4.324.092,9.465.344,15.452.042,1.1.1,2.179.164,3.242h-17.493l19.091,12.909h92.82a62.039,62.039,0,0,1-.707-10.05v-8.628a62.368,62.368,0,0,1,4.92-24.053,124.372,124.372,0,0,1,12.317-22.627,166.742,166.742,0,0,1,16.526-20.452q9.136-9.714,17.585-18.326,11.227-11.468,23.189-24.4a192,192,0,0,0,21.105-27.279,153.2,153.2,0,0,0,15.108-31.255,110.426,110.426,0,0,0,6-36.977A145.76,145.76,0,0,0,1241.243,478.653Z" transform="translate(-699.899 -385.603)" fill="#e49b31"/>
      <path id="Path_340" data-name="Path 340" d="M1037.893,478.654a173.848,173.848,0,0,0-47.257,6.246q-22.214,6.246-49.34,20.154L912.09,426.535q27.115-17.374,63.955-26.759a291.44,291.44,0,0,1,72.277-9.366q44.459,0,73.3,11.808t45.541,29.882q16.659,18.089,23.277,39.615a139.251,139.251,0,0,1,6.606,40.991,104.135,104.135,0,0,1-5.925,35.789,147.244,147.244,0,0,1-14.932,30.246,186.4,186.4,0,0,1-20.857,26.4q-11.812,12.519-22.937,23.617-8.349,8.349-17.374,17.738a162.524,162.524,0,0,0-16.335,19.794,119.827,119.827,0,0,0-12.172,21.9,59.279,59.279,0,0,0-4.863,23.281v8.345a58.165,58.165,0,0,0,.7,9.729H990.605a96.947,96.947,0,0,1-1.743-15.631c-.248-5.791-.34-10.769-.34-14.955a117.889,117.889,0,0,1,4.866-35.089,136.476,136.476,0,0,1,12.848-29.183,164.556,164.556,0,0,1,18.445-25.387q10.421-11.812,21.537-22.936,15.979-15.979,29.206-31.626a54.106,54.106,0,0,0,13.189-35.789c0-11.132-4.278-20.608-12.848-28.506S1054.568,478.654,1037.893,478.654Z" transform="translate(-670.557 -382.99)" fill="#fbc343"/>
      <path id="Path_341" data-name="Path 341" d="M1255.623,1463.251q0,25.1-16.25,38.759t-36.756,13.674q-20.54,0-36.771-13.674t-16.235-38.759q0-25.07,16.235-38.755c16.679-14.075,41.351-17.2,60.881-7.336C1244.051,1425.93,1255.623,1443.729,1255.623,1463.251Z" transform="translate(-817.279 -1013.696)" fill="#e49b31"/>
      <path id="Path_342" data-name="Path 342" d="M1208.123,1462.279q0,25.1-16.25,38.759t-36.756,13.674q-20.54,0-36.771-13.674t-16.235-38.759q0-25.07,16.235-38.755t36.771-13.674q20.509,0,36.756,13.674T1208.123,1462.279Z" transform="translate(-787.937 -1012.723)" fill="#fbc343"/>
      <circle id="Ellipse_1" data-name="Ellipse 1" cx="9.996" cy="9.996" r="9.996" transform="translate(123.908 218.476) rotate(-79.38)" fill="#d3dfff"/>
      <ellipse id="Ellipse_2" data-name="Ellipse 2" cx="5.623" cy="5.661" rx="5.623" ry="5.661" transform="translate(137.985 234.499) rotate(-79.39)" fill="#d3dfff"/>
      <circle id="Ellipse_3" data-name="Ellipse 3" cx="39.359" cy="39.359" r="39.359" transform="translate(55.234 160.137) rotate(-45)" fill="#d3dfff"/>
      <circle id="Ellipse_4" data-name="Ellipse 4" cx="4.958" cy="4.958" r="4.958" transform="translate(90.825 155.177)" fill="#fff"/>
      <circle id="Ellipse_5" data-name="Ellipse 5" cx="4.958" cy="4.958" r="4.958" transform="translate(105.936 155.177)" fill="#fff"/>
      <circle id="Ellipse_6" data-name="Ellipse 6" cx="4.958" cy="4.958" r="4.958" transform="translate(121.051 155.177)" fill="#fff"/>
      <path id="Path_343" data-name="Path 343" d="M496.208,1608.229l3.677,14.178a8.119,8.119,0,0,0,8.487,5.925c12.061-.818,37.111-3.773,51.492-14.37l-4.087-20.433c-19.771-1.12-38.262-.019-54.283,5.352A7.87,7.87,0,0,0,496.208,1608.229Z" transform="translate(-413.506 -1125.943)" fill="#102048"/>
      <path id="Path_344" data-name="Path 344" d="M548.119,1632.039a.482.482,0,0,1-.459-.348l-4.939-17.673a.478.478,0,1,1,.921-.256l4.939,17.68a.47.47,0,0,1-.463.6Z" transform="translate(-442.378 -1138.469)" fill="#fff"/>
      <path id="Path_345" data-name="Path 345" d="M576.039,1625.778a.474.474,0,0,1-.459-.348l-4.939-17.68a.478.478,0,1,1,.921-.256l4.939,17.68a.482.482,0,0,1-.333.589.507.507,0,0,1-.13.015Z" transform="translate(-459.625 -1134.597)" fill="#fff"/>
      <path id="Path_346" data-name="Path 346" d="M542.959,1427.421l-45.949,13.64,34.126,46.756,48.992,3.9L647.7,1463.14l-25.681-38.64Z" transform="translate(-414.152 -1021.773)" fill="#fbc343"/>
      <path id="Path_347" data-name="Path 347" d="M676.594,1439.317c100.921-29.871,117.129,59.314-40.322,75.549-5.562-6.258-12.061-17.118-14.641-26.193l83.149-38.422Z" transform="translate(-491.133 -1027.174)" fill="#fbc343"/>
      <path id="Path_348" data-name="Path 348" d="M735.467,1609.069a44.573,44.573,0,0,1-9.243-4.5L710,1609.658l3.716,17.642,16.847,3.44C735.7,1621.337,735.995,1613.626,735.467,1609.069Z" transform="translate(-545.721 -1133.007)" fill="#f9b384"/>
      <path id="Path_349" data-name="Path 349" d="M621.413,1510.891l-.723-1.239c17.348-10.081,61.776-34.3,99.632-41.443l.264,1.411C682.951,1476.719,638.691,1500.849,621.413,1510.891Z" transform="translate(-490.552 -1048.774)" fill="#e49b31"/>
      <path id="Path_350" data-name="Path 350" d="M496.417,1428.38c-93.929-17.856-118.253,72.41,39.195,88.634a57.192,57.192,0,0,0,12.5-22.73,716.79,716.79,0,0,0-80.863-46.217Z" transform="translate(-367.61 -1022.733)" fill="#fbc343"/>
      <path id="Path_351" data-name="Path 351" d="M604.922,1517.673c-4.469-2.844-9.125-5.849-14.056-9.033-24.741-15.975-52.788-34.08-76.616-44.405l.573-1.315c23.934,10.371,52.031,28.51,76.837,44.516,4.928,3.184,9.58,6.189,14.045,9.029Z" transform="translate(-424.801 -1045.506)" fill="#e49b31"/>
      <path id="Path_352" data-name="Path 352" d="M434.914,1527.427l-1.254-.692c3.525-6.384,9.175-10.7,16.782-12.795l.382,1.38C443.5,1517.35,438.293,1521.31,434.914,1527.427Z" transform="translate(-375.019 -1077.022)" fill="#e49b31"/>
      <path id="Path_353" data-name="Path 353" d="M924.054,1513.2c-3.379-6.116-8.586-10.077-15.914-12.111l.382-1.38c7.611,2.11,13.257,6.415,16.782,12.8Z" transform="translate(-668.117 -1068.232)" fill="#e49b31"/>
      <path id="Path_354" data-name="Path 354" d="M695.044,1618.426l-1.044-.994c7.516-8.047,12.13-16.545,14.11-25.972l1.4.294C707.471,1601.445,702.743,1610.165,695.044,1618.426Z" transform="translate(-535.837 -1124.908)" fill="#e49b31"/>
      <path id="Path_355" data-name="Path 355" d="M815.551,1598.86c-12.034-7.435-35.364,5.413-41.221,6.059a14.094,14.094,0,0,1-5.623-.8c.535,4.557.237,12.267-4.9,21.652l2.863.581s19.783,7.263,40.77,3.031C826.813,1625.485,825.012,1604.7,815.551,1598.86Z" transform="translate(-578.961 -1128.054)" fill="#102048"/>
      <path id="Path_356" data-name="Path 356" d="M851.9,1632.5a.505.505,0,0,1-.145-.023.478.478,0,0,1-.31-.6c1.43-4.526,2.053-13.433-2.087-19.416a.478.478,0,1,1,.765-.543c4.339,6.262,3.7,15.54,2.213,20.261A.482.482,0,0,1,851.9,1632.5Z" transform="translate(-631.715 -1137.37)" fill="#fff"/>
      <path id="Path_357" data-name="Path 357" d="M827.316,1637.3a.457.457,0,0,1-.141-.023.474.474,0,0,1-.313-.6c1.43-4.53,2.053-13.433-2.087-19.416a.478.478,0,0,1,.788-.543c4.335,6.262,3.7,15.54,2.21,20.26A.474.474,0,0,1,827.316,1637.3Z" transform="translate(-616.567 -1140.388)" fill="#fff"/>
      <path id="Path_358" data-name="Path 358" d="M528.6,1059.394s23.659-20.115,22.78-23.938c-.623-2.733-7.324,1.273-7.324,1.273s9.4-11.147,8.919-12.5c-.852-2.416-7.355,2.091-7.355,2.091s4.4-6.323,2.294-7.351-6.678,2.867-6.678,2.867,2.676-3.513,1.418-4.434-6.678,2.867-6.678,2.867,1.946-4.427-2.19-2.749S500.67,1045.8,500.67,1045.8Z" transform="translate(-416.413 -770.134)" fill="#f9b384"/>
      <path id="Path_359" data-name="Path 359" d="M581.261,1053.861a.475.475,0,0,1-.321-.126c-4.06-3.708-5.853-4.61-10.321-5.99a.478.478,0,1,1,.283-.91c4.641,1.426,6.5,2.358,10.7,6.193a.478.478,0,0,1-.325.833Z" transform="translate(-459.392 -788.459)" fill="#e28b6d"/>
      <path id="Path_360" data-name="Path 360" d="M579.646,1081.776h-.069a.478.478,0,0,1-.405-.539c.463-3.326,1.529-5.405,3.2-6.357,1.445-.81,3.326-.726,5.585.249a.479.479,0,0,1-.382.879c-1.973-.853-3.567-.952-4.736-.294-1.391.765-2.294,2.676-2.726,5.654A.474.474,0,0,1,579.646,1081.776Z" transform="translate(-464.903 -805.464)" fill="#e28b6d"/>
      <path id="Path_361" data-name="Path 361" d="M576.714,1030.621a.485.485,0,0,1-.348-.153.478.478,0,0,1,0-.673l5.937-5.6a.479.479,0,0,1,.657.7l-5.937,5.593A.475.475,0,0,1,576.714,1030.621Z" transform="translate(-463.087 -774.416)" fill="#e28b6d"/>
      <path id="Path_362" data-name="Path 362" d="M591.108,1035.034a.482.482,0,0,1-.348-.81l5.7-5.941a.478.478,0,1,1,.688.661l-5.7,5.941A.477.477,0,0,1,591.108,1035.034Z" transform="translate(-471.984 -776.918)" fill="#e28b6d"/>
      <path id="Path_363" data-name="Path 363" d="M605.792,1045.721a.491.491,0,0,1-.325-.13.482.482,0,0,1-.023-.677l4.473-4.8a.478.478,0,0,1,.7.65l-4.473,4.8A.486.486,0,0,1,605.792,1045.721Z" transform="translate(-481.055 -784.245)" fill="#e28b6d"/>
      <path id="Path_364" data-name="Path 364" d="M652.3,1295.36l-86.49,3.345-9.557-78.844s28.954-27.466,40.093-37.578l18.808-.963C673.513,1207.838,663.956,1240.963,652.3,1295.36Z" transform="translate(-450.746 -871.555)" fill="#3a6bea"/>
      <path id="Path_365" data-name="Path 365" d="M710.33,1181.32s66.772,5.707,87.8,51.443c20.593,44.749-64.031,60.686-64.031,60.686Z" transform="translate(-545.925 -871.555)" fill="#3a6bea"/>
      <path id="Path_366" data-name="Path 366" d="M418.466,1127.5l27.585-33.568-25.8-15.631c-10.761,7.481-31.568,24.427-49.2,43.618a36.352,36.352,0,0,0-8.464,14.63,31.477,31.477,0,0,0-.81,13.735h0a26.519,26.519,0,0,0,23.437,22.2c10.509,1.227,50.651-1.911,83.145-11.468l9.557-36.886C473.006,1121.329,436.51,1120.843,418.466,1127.5Z" transform="translate(-330.364 -807.917)" fill="#3a6bea"/>
      <g id="Group_1" data-name="Group 1" transform="translate(45.101 281.473)" opacity="0.8">
        <path id="Path_367" data-name="Path 367" d="M803.248,1207.51l.432-.1-.906-.528a140.437,140.437,0,0,1-14.909,2.879c-2.993.359-13,1.021-15.9-5.635-1.453-3.311-.352-7,1.292-9.58l-.719-.206c-1.682,2.741-2.76,6.583-1.227,10.073,3.115,7.11,13.525,6.438,16.64,6.059A146.45,146.45,0,0,0,803.248,1207.51Z" transform="translate(-628.239 -1161.07)" fill="#fff"/>
        <path id="Path_368" data-name="Path 368" d="M902.732,1360.116c-3.188-1.231-6.5-2.5-9.939-2.179-6.078.577-11.277,6.583-11.591,13.38a21.026,21.026,0,0,0,4.939,13.789l.612-.382a20.338,20.338,0,0,1-4.836-13.38c.3-6.468,5.21-12.168,10.941-12.711,3.3-.306,6.369.876,9.622,2.133,1.147.451,2.343.9,3.544,1.288.061-.233.122-.463.176-.7C905.022,1360.987,903.867,1360.555,902.732,1360.116Z" transform="translate(-696.567 -1262.097)" fill="#fff"/>
        <path id="Path_369" data-name="Path 369" d="M443,1298.509c-4.167-3.44-10.643-4.365-17.764-2.527a30.649,30.649,0,0,0-15.528,9.2c.245.077.485.168.734.241a30.046,30.046,0,0,1,14.974-8.743c6.881-1.785,13.139-.914,17.13,2.385a15.542,15.542,0,0,1,4.205,5.8l.742-.084A16.439,16.439,0,0,0,443,1298.509Z" transform="translate(-405.325 -1223.285)" fill="#fff"/>
        <path id="Path_370" data-name="Path 370" d="M398.24,1135.128a86.36,86.36,0,0,0,22.459-8.712,24.525,24.525,0,0,0,7.764-6.342,10.908,10.908,0,0,0,2-9.706,7.6,7.6,0,0,0-1.946-3.058l-.55.451a6.881,6.881,0,0,1,1.812,2.84,10.169,10.169,0,0,1-1.888,9.052,24.066,24.066,0,0,1-7.542,6.147,84.589,84.589,0,0,1-21.167,8.368Z" transform="translate(-398.24 -1107.31)" fill="#fff"/>
      </g>
      <path id="Path_371" data-name="Path 371" d="M687.325,1133.52v1.223l-.2,19.011-.023,2.06a11.851,11.851,0,0,1-23.678,0l-.229-23.495Z" transform="translate(-516.812 -841.286)" fill="#f9b384"/>
      <path id="Path_372" data-name="Path 372" d="M701.874,1138.66l-.195,19.011c-10.566-4.3-14.909-15.738-14.909-15.738Z" transform="translate(-531.371 -845.203)" fill="#102048"/>
      <path id="Path_373" data-name="Path 373" d="M687.533,1049.181c3.788,4.545,14.844,30.291,3.635,39.076-12.615,9.885-31.805-6.361-31.805-6.361L656.79,1051.9l16.66-4.392Z" transform="translate(-512.852 -788.897)" fill="#f9b384"/>
      <path id="Path_374" data-name="Path 374" d="M604.449,1047.56s-36.951,19.274-6.82,74.83a15.13,15.13,0,0,0,19.771,6.766h0a14.989,14.989,0,0,0,6.575-20.933c-4.928-8.754-9.687-20.027-7.646-28.418Z" transform="translate(-469.001 -788.928)" fill="#102048"/>
      <circle id="Ellipse_7" data-name="Ellipse 7" cx="9.996" cy="9.996" r="9.996" transform="translate(124.805 267.759) rotate(-45)" fill="#fbc343"/>
      <path id="Path_375" data-name="Path 375" d="M646.033,1048.536c-1.082-6.235-1.739-10.513,4.564-13.728,0,0,22.214,4.041,26.453-4.339s-2.221-21.61-15.75-12.42c-34.634-6.766-39.279,25.647-28.778,36.45l10.363-1.59a3.777,3.777,0,0,0,3.146-4.373Z" transform="translate(-494.797 -768.771)" fill="#102048"/>
      <circle id="Ellipse_8" data-name="Ellipse 8" cx="1.476" cy="1.476" r="1.476" transform="translate(166.959 278.308)" fill="#102048"/>
      <circle id="Ellipse_9" data-name="Ellipse 9" cx="1.476" cy="1.476" r="1.476" transform="translate(176.955 273.384)" fill="#102048"/>
      <path id="Path_376" data-name="Path 376" d="M739.145,1103.694a.412.412,0,0,1-.287-.115.42.42,0,0,1,0-.593c.593-.623,1.242-1.5.971-2.133s-1.483-.944-2.03-.944c-1.177,0-1.743-2.1-1.846-2.519a.421.421,0,1,1,.814-.195c.214.887.7,1.877,1.032,1.877.562,0,2.294.264,2.794,1.449.363.849,0,1.869-1.147,3.058A.419.419,0,0,1,739.145,1103.694Z" transform="translate(-561.739 -819.366)" fill="#102048"/>
      <path id="Path_377" data-name="Path 377" d="M734.08,1126.469a.41.41,0,0,1-.233-.073,5.587,5.587,0,0,0-5.616-.287.417.417,0,0,1-.57-.153.424.424,0,0,1,.153-.573,6.351,6.351,0,0,1,6.5.321.417.417,0,0,1-.233.765Z" transform="translate(-556.597 -836.536)" fill="#102048"/>
      <path id="Path_378" data-name="Path 378" d="M709.005,1085.052c.841,1.579-.623,1.911-2.339,2.81s-3.471,1.246-3.873.489.665-2.1,2.382-3.016S708.355,1083.844,709.005,1085.052Z" transform="translate(-541.217 -811.664)" fill="#102048"/>
      <path id="Path_379" data-name="Path 379" d="M735.472,1075.21c.382,1.411,1.422.8,2.955.382s2.768-1.17,2.588-1.843-1.56-.894-3.089-.493S735.185,1074.121,735.472,1075.21Z" transform="translate(-561.43 -804.678)" fill="#102048"/>
      <circle id="Ellipse_10" data-name="Ellipse 10" cx="4.354" cy="4.354" r="4.354" transform="translate(155.474 286.388) rotate(-42.69)" fill="#eb5d60" opacity="0.4"/>
      <ellipse id="Ellipse_11" data-name="Ellipse 11" cx="5.899" cy="6.701" rx="5.899" ry="6.701" transform="matrix(0.611, -0.792, 0.792, 0.611, 136.17, 287.285)" fill="#f9b384"/>
      <path id="Path_380" data-name="Path 380" d="M658.019,1118.834a.417.417,0,0,1-.417-.417,3.666,3.666,0,0,0-1.609-3.058,2.955,2.955,0,0,0-2.749-.363.42.42,0,0,1-.317-.765,3.792,3.792,0,0,1,3.532.447,4.5,4.5,0,0,1,1.98,3.746A.417.417,0,0,1,658.019,1118.834Z" transform="translate(-510.346 -829.96)" fill="#102048"/>
      <rect id="Rectangle_9" data-name="Rectangle 9" width="22.225" height="0.956" transform="matrix(0.679, -0.734, 0.734, 0.679, 72.67, 335.544)" fill="#102048"/>
      <path id="Path_381" data-name="Path 381" d="M787.415,1356.708l-.275-.914c10.983-3.349,21.641-7.355,31.3-19.435l.765.6C809.358,1349.25,798.555,1353.314,787.415,1356.708Z" transform="translate(-593.372 -967.327)" fill="#102048"/>
      <path id="Path_382" data-name="Path 382" d="M644.518,1292.78H551.086a6.346,6.346,0,0,0-6.086,6.579v66.711a6.35,6.35,0,0,0,6.086,6.583h93.432a6.35,6.35,0,0,0,6.086-6.583v-66.707A6.347,6.347,0,0,0,644.518,1292.78Z" transform="translate(-443.796 -940.406)" fill="#d3dfff"/>
      <path id="Path_383" data-name="Path 383" d="M675.948,1383.107a.669.669,0,0,1,.642.7v7.042a.673.673,0,0,1-.642.7h-9.855a.673.673,0,0,1-.642-.7v-7.057a.669.669,0,0,1,.642-.7h9.855m0-1.911h-9.855a2.584,2.584,0,0,0-2.554,2.607v7.042a2.584,2.584,0,0,0,2.554,2.607h9.855a2.584,2.584,0,0,0,2.554-2.607v-7.042a2.584,2.584,0,0,0-2.554-2.607Z" transform="translate(-517.021 -995.013)" fill="#1f3c88"/>
      <rect id="Rectangle_10" data-name="Rectangle 10" width="563.351" height="1.911" transform="translate(0 501.216)" fill="#eee"/>
    </g>
  </g>
</svg>
