<svg id="Ñëîé_1" data-name="Ñëîé 1" xmlns="http://www.w3.org/2000/svg" xmlns:xlink="http://www.w3.org/1999/xlink" viewBox="0 0 343.01 223.56"><defs><style>.cls-1,.cls-24{fill:#03a7d3;}.cls-2{fill:url(#Áåçûìÿííûé_ãðàäèåíò_354);}.cls-3{fill:url(#Áåçûìÿííûé_ãðàäèåíò_346);}.cls-4{fill:#fff;}.cls-5{fill:#06033e;opacity:0.4;}.cls-6{fill:url(#Áåçûìÿííûé_ãðàäèåíò_354-2);}.cls-7{fill:url(#Áåçûìÿííûé_ãðàäèåíò_346-2);}.cls-8{fill:url(#Áåçûìÿííûé_ãðàäèåíò_354-3);}.cls-9{fill:url(#Áåçûìÿííûé_ãðàäèåíò_346-3);}.cls-10{fill:url(#Áåçûìÿííûé_ãðàäèåíò_354-4);}.cls-11{fill:url(#Áåçûìÿííûé_ãðàäèåíò_346-4);}.cls-12{fill:url(#Áåçûìÿííûé_ãðàäèåíò_354-5);}.cls-13{fill:url(#Áåçûìÿííûé_ãðàäèåíò_346-5);}.cls-14{fill:url(#Áåçûìÿííûé_ãðàäèåíò_354-6);}.cls-15{fill:url(#Áåçûìÿííûé_ãðàäèåíò_346-6);}.cls-16{fill:url(#Áåçûìÿííûé_ãðàäèåíò_67);}.cls-17{fill:#8b1e64;}.cls-18{fill:url(#Áåçûìÿííûé_ãðàäèåíò_354-7);}.cls-19{fill:url(#Áåçûìÿííûé_ãðàäèåíò_346-7);}.cls-20{fill:url(#Áåçûìÿííûé_ãðàäèåíò_354-8);}.cls-21{fill:url(#Áåçûìÿííûé_ãðàäèåíò_346-8);}.cls-22{fill:url(#Áåçûìÿííûé_ãðàäèåíò_354-9);}.cls-23{fill:url(#Áåçûìÿííûé_ãðàäèåíò_346-9);}.cls-24{opacity:0.2;}.cls-25{fill:url(#Áåçûìÿííûé_ãðàäèåíò_354-10);}.cls-26{fill:url(#Áåçûìÿííûé_ãðàäèåíò_346-10);}.cls-27{fill:url(#Áåçûìÿííûé_ãðàäèåíò_354-11);}.cls-28{fill:url(#Áåçûìÿííûé_ãðàäèåíò_346-11);}.cls-29{fill:url(#Áåçûìÿííûé_ãðàäèåíò_354-12);}.cls-30{fill:url(#Áåçûìÿííûé_ãðàäèåíò_346-12);}</style><linearGradient id="Áåçûìÿííûé_ãðàäèåíò_354" x1="212.23" y1="173.87" x2="274.02" y2="173.87" gradientUnits="userSpaceOnUse"><stop offset="0" stop-color="#01c8ef"/><stop offset="0.13" stop-color="#04b1dd"/><stop offset="0.55" stop-color="#0e6ba7"/><stop offset="0.85" stop-color="#154085"/><stop offset="1" stop-color="#172f78"/></linearGradient><radialGradient id="Áåçûìÿííûé_ãðàäèåíò_346" cx="201.27" cy="127.53" r="138" gradientUnits="userSpaceOnUse"><stop offset="0" stop-color="#01c8ef"/><stop offset="0.14" stop-color="#03bae4"/><stop offset="0.4" stop-color="#0895c8"/><stop offset="0.76" stop-color="#115a9a"/><stop offset="1" stop-color="#172f78"/></radialGradient><linearGradient id="Áåçûìÿííûé_ãðàäèåíò_354-2" x1="212.23" y1="141.06" x2="274.02" y2="141.06" xlink:href="#Áåçûìÿííûé_ãðàäèåíò_354"/><radialGradient id="Áåçûìÿííûé_ãðàäèåíò_346-2" cx="201.27" cy="94.72" r="138" xlink:href="#Áåçûìÿííûé_ãðàäèåíò_346"/><linearGradient id="Áåçûìÿííûé_ãðàäèåíò_354-3" x1="212.23" y1="108.24" x2="274.02" y2="108.24" xlink:href="#Áåçûìÿííûé_ãðàäèåíò_354"/><radialGradient id="Áåçûìÿííûé_ãðàäèåíò_346-3" cx="201.27" cy="61.91" r="138" xlink:href="#Áåçûìÿííûé_ãðàäèåíò_346"/><linearGradient id="Áåçûìÿííûé_ãðàäèåíò_354-4" x1="147.7" y1="211.2" x2="209.5" y2="211.2" xlink:href="#Áåçûìÿííûé_ãðàäèåíò_354"/><radialGradient id="Áåçûìÿííûé_ãðàäèåíò_346-4" cx="136.75" cy="164.86" r="138" xlink:href="#Áåçûìÿííûé_ãðàäèåíò_346"/><linearGradient id="Áåçûìÿííûé_ãðàäèåíò_354-5" x1="147.7" y1="178.39" x2="209.5" y2="178.39" xlink:href="#Áåçûìÿííûé_ãðàäèåíò_354"/><radialGradient id="Áåçûìÿííûé_ãðàäèåíò_346-5" cx="136.75" cy="132.05" r="138" xlink:href="#Áåçûìÿííûé_ãðàäèåíò_346"/><linearGradient id="Áåçûìÿííûé_ãðàäèåíò_354-6" x1="147.7" y1="145.58" x2="209.5" y2="145.58" xlink:href="#Áåçûìÿííûé_ãðàäèåíò_354"/><radialGradient id="Áåçûìÿííûé_ãðàäèåíò_346-6" cx="136.75" cy="99.24" r="138" xlink:href="#Áåçûìÿííûé_ãðàäèåíò_346"/><radialGradient id="Áåçûìÿííûé_ãðàäèåíò_67" cx="148.92" cy="107.56" r="94.88" gradientUnits="userSpaceOnUse"><stop offset="0" stop-color="#f9636b"/><stop offset="1" stop-color="#b6246e"/></radialGradient><linearGradient id="Áåçûìÿííûé_ãðàäèåíò_354-7" x1="276.52" y1="211.17" x2="338.32" y2="211.17" xlink:href="#Áåçûìÿííûé_ãðàäèåíò_354"/><radialGradient id="Áåçûìÿííûé_ãðàäèåíò_346-7" cx="265.56" cy="164.83" r="138" xlink:href="#Áåçûìÿííûé_ãðàäèåíò_346"/><linearGradient id="Áåçûìÿííûé_ãðàäèåíò_354-8" x1="276.52" y1="178.35" x2="338.32" y2="178.35" xlink:href="#Áåçûìÿííûé_ãðàäèåíò_354"/><radialGradient id="Áåçûìÿííûé_ãðàäèåíò_346-8" cx="265.56" cy="132.02" r="138" xlink:href="#Áåçûìÿííûé_ãðàäèåíò_346"/><linearGradient id="Áåçûìÿííûé_ãðàäèåíò_354-9" x1="276.52" y1="145.54" x2="338.32" y2="145.54" xlink:href="#Áåçûìÿííûé_ãðàäèåíò_354"/><radialGradient id="Áåçûìÿííûé_ãðàäèåíò_346-9" cx="265.56" cy="99.2" r="138" xlink:href="#Áåçûìÿííûé_ãðàäèåíò_346"/><linearGradient id="Áåçûìÿííûé_ãðàäèåíò_354-10" x1="212" y1="248.5" x2="273.79" y2="248.5" xlink:href="#Áåçûìÿííûé_ãðàäèåíò_354"/><radialGradient id="Áåçûìÿííûé_ãðàäèåíò_346-10" cx="201.04" cy="202.16" r="138" xlink:href="#Áåçûìÿííûé_ãðàäèåíò_346"/><linearGradient id="Áåçûìÿííûé_ãðàäèåíò_354-11" x1="212" y1="215.69" x2="273.79" y2="215.69" xlink:href="#Áåçûìÿííûé_ãðàäèåíò_354"/><radialGradient id="Áåçûìÿííûé_ãðàäèåíò_346-11" cx="201.04" cy="169.35" r="138" xlink:href="#Áåçûìÿííûé_ãðàäèåíò_346"/><linearGradient id="Áåçûìÿííûé_ãðàäèåíò_354-12" x1="212" y1="182.87" x2="273.79" y2="182.87" xlink:href="#Áåçûìÿííûé_ãðàäèåíò_354"/><radialGradient id="Áåçûìÿííûé_ãðàäèåíò_346-12" cx="201.04" cy="136.54" r="138" xlink:href="#Áåçûìÿííûé_ãðàäèåíò_346"/></defs><path class="cls-1" d="M261.23,211.09a11.11,11.11,0,0,1-5.42-1.3l-36.48-21.06a3.53,3.53,0,0,1,0-6.66L255.61,161a12.05,12.05,0,0,1,10.85,0L302.94,182a3.53,3.53,0,0,1,0,6.66l-36.28,21.1A11.15,11.15,0,0,1,261.23,211.09ZM261,160.35a10.41,10.41,0,0,0-5.09,1.21l-36.28,21.1a2.87,2.87,0,0,0,0,5.48l36.48,21.06a11.27,11.27,0,0,0,10.18,0l36.28-21.1a2.87,2.87,0,0,0,0-5.48l-36.48-21.06A10.37,10.37,0,0,0,261,160.35Z" transform="translate(-94.7 -65.25)"/><path class="cls-2" d="M305.13,173.85h0V156.36L283,159.31l-16.55-9.56a11.65,11.65,0,0,0-10.51,0l-2.58,1.64-35.88,4.79V174h0a3.74,3.74,0,0,0,2.16,2.94L256.15,198a11.61,11.61,0,0,0,10.52,0L303,176.88a3.7,3.7,0,0,0,2.16-2.93h0Z" transform="translate(-94.7 -65.25)"/><path class="cls-3" d="M303,153.19l-36.48-21.06a11.65,11.65,0,0,0-10.51,0l-36.29,21.1c-2.9,1.68-2.9,4.4,0,6.07l36.48,21.06a11.61,11.61,0,0,0,10.52,0L303,159.26C305.85,157.59,305.85,154.87,303,153.19Z" transform="translate(-94.7 -65.25)"/><path class="cls-4" d="M303,158.2l-36.28,21.1a11.61,11.61,0,0,1-10.52,0l-36.48-21.06a4.06,4.06,0,0,1-2.11-2.5c-.27,1.27.43,2.59,2.11,3.56l36.48,21.06a11.61,11.61,0,0,0,10.52,0L303,159.26c1.69-1,2.39-2.29,2.12-3.56A4,4,0,0,1,303,158.2Z" transform="translate(-94.7 -65.25)"/><polygon class="cls-4" points="176.87 119.78 175.14 120.78 175.14 118.78 176.87 117.79 176.87 119.78"/><polygon class="cls-4" points="180.48 117.69 178.75 118.69 178.75 116.7 180.48 115.7 180.48 117.69"/><polygon class="cls-4" points="184.09 115.61 182.37 116.61 182.37 114.61 184.09 113.61 184.09 115.61"/><polygon class="cls-4" points="181.14 121.36 179.41 122.35 179.41 120.36 181.14 119.36 181.14 121.36"/><polygon class="cls-4" points="184.32 119.52 182.59 120.52 182.59 118.52 184.32 117.53 184.32 119.52"/><polygon class="cls-4" points="195.68 108.92 193.96 109.92 193.96 107.92 195.68 106.92 195.68 108.92"/><polygon class="cls-4" points="205.63 103.17 203.91 104.17 203.91 102.17 205.63 101.18 205.63 103.17"/><polygon class="cls-4" points="187.71 113.52 185.98 114.52 185.98 112.53 187.71 111.53 187.71 113.52"/><path class="cls-5" d="M259.25,171.47,234.71,157.3c-1-.58-.88-1.59.28-2.25l24-13.85a4.36,4.36,0,0,1,3.89-.16l24.54,14.17c1,.58.88,1.58-.28,2.25l-24,13.85A4.36,4.36,0,0,1,259.25,171.47Z" transform="translate(-94.7 -65.25)"/><path class="cls-4" d="M249.59,186.8l-20.25-11.69a2.1,2.1,0,0,1-.87-1.67v-1.51c0-.64.39-.94.87-.66L249.59,183a2.07,2.07,0,0,1,.88,1.67v1.5C250.47,186.79,250.08,187.08,249.59,186.8Z" transform="translate(-94.7 -65.25)"/><path class="cls-6" d="M305.13,141h0V123.55l-22.1,3-16.55-9.56a11.65,11.65,0,0,0-10.51,0l-2.58,1.64-35.88,4.79v17.8h0a3.74,3.74,0,0,0,2.16,2.94l36.48,21.06a11.61,11.61,0,0,0,10.52,0L303,144.07a3.7,3.7,0,0,0,2.16-2.93h0Z" transform="translate(-94.7 -65.25)"/><path class="cls-7" d="M303,120.38,266.47,99.32a11.59,11.59,0,0,0-10.51,0l-36.29,21.1c-2.9,1.68-2.9,4.39,0,6.07l36.48,21.06a11.61,11.61,0,0,0,10.52,0L303,126.45C305.85,124.78,305.85,122.06,303,120.38Z" transform="translate(-94.7 -65.25)"/><path class="cls-5" d="M285.58,121.66l-21.26-12.28a6.82,6.82,0,0,0-6.13,0l-21.14,12.3c-1.69,1-1.69,2.56,0,3.54l21.26,12.27a6.8,6.8,0,0,0,6.12,0l21.15-12.3C287.27,124.22,287.27,122.63,285.58,121.66Z" transform="translate(-94.7 -65.25)"/><path class="cls-4" d="M303,125.39l-36.28,21.1a11.61,11.61,0,0,1-10.52,0l-36.48-21.06a4.06,4.06,0,0,1-2.11-2.5c-.27,1.26.43,2.59,2.11,3.56l36.48,21.06a11.61,11.61,0,0,0,10.52,0L303,126.45c1.69-1,2.39-2.3,2.12-3.56A4,4,0,0,1,303,125.39Z" transform="translate(-94.7 -65.25)"/><polygon class="cls-4" points="176.87 86.97 175.14 87.97 175.14 85.97 176.87 84.97 176.87 86.97"/><polygon class="cls-4" points="180.48 84.88 178.75 85.88 178.75 83.89 180.48 82.89 180.48 84.88"/><polygon class="cls-4" points="184.09 82.8 182.37 83.79 182.37 81.8 184.09 80.8 184.09 82.8"/><polygon class="cls-4" points="181.14 88.54 179.41 89.54 179.41 87.55 181.14 86.55 181.14 88.54"/><polygon class="cls-4" points="184.32 86.71 182.59 87.7 182.59 85.71 184.32 84.71 184.32 86.71"/><polygon class="cls-4" points="195.68 76.11 193.96 77.1 193.96 75.11 195.68 74.11 195.68 76.11"/><polygon class="cls-4" points="205.63 70.36 203.91 71.36 203.91 69.36 205.63 68.37 205.63 70.36"/><polygon class="cls-4" points="187.71 80.71 185.98 81.71 185.98 79.71 187.71 78.72 187.71 80.71"/><path class="cls-8" d="M305.13,108.23h0V90.74L283,93.68l-16.55-9.55a11.59,11.59,0,0,0-10.51,0l-2.58,1.64L217.5,90.55v17.81h0a3.75,3.75,0,0,0,2.16,2.94l36.48,21.06a11.61,11.61,0,0,0,10.52,0L303,111.26a3.72,3.72,0,0,0,2.16-2.93h0Z" transform="translate(-94.7 -65.25)"/><path class="cls-9" d="M303,87.57,266.47,66.51a11.59,11.59,0,0,0-10.51,0l-36.29,21.1c-2.9,1.67-2.9,4.39,0,6.07l36.48,21.06a11.67,11.67,0,0,0,10.52,0L303,93.64C305.85,92,305.85,89.25,303,87.57Z" transform="translate(-94.7 -65.25)"/><path class="cls-4" d="M303,92.58l-36.28,21.1a11.67,11.67,0,0,1-10.52,0L219.67,92.62a4.07,4.07,0,0,1-2.11-2.51c-.27,1.27.43,2.59,2.11,3.57l36.48,21.06a11.67,11.67,0,0,0,10.52,0L303,93.64c1.69-1,2.39-2.3,2.12-3.57A4,4,0,0,1,303,92.58Z" transform="translate(-94.7 -65.25)"/><polygon class="cls-4" points="176.87 54.16 175.14 55.15 175.14 53.16 176.87 52.16 176.87 54.16"/><polygon class="cls-4" points="180.48 52.07 178.75 53.07 178.75 51.07 180.48 50.08 180.48 52.07"/><polygon class="cls-4" points="184.09 49.98 182.37 50.98 182.37 48.99 184.09 47.99 184.09 49.98"/><polygon class="cls-4" points="181.14 55.73 179.41 56.73 179.41 54.73 181.14 53.74 181.14 55.73"/><polygon class="cls-4" points="184.32 53.89 182.59 54.89 182.59 52.9 184.32 51.9 184.32 53.89"/><polygon class="cls-4" points="195.68 43.29 193.96 44.29 193.96 42.3 195.68 41.3 195.68 43.29"/><polygon class="cls-4" points="205.63 37.55 203.91 38.54 203.91 36.55 205.63 35.55 205.63 37.55"/><polygon class="cls-4" points="187.71 47.9 185.98 48.9 185.98 46.9 187.71 45.9 187.71 47.9"/><path class="cls-1" d="M196.7,248.42a11,11,0,0,1-5.42-1.3L154.8,226.06a3.53,3.53,0,0,1,0-6.66l36.29-21.09a12,12,0,0,1,10.85,0l36.48,21.07a3.53,3.53,0,0,1,0,6.65l-36.29,21.1A11,11,0,0,1,196.7,248.42Zm-.19-50.74a10.37,10.37,0,0,0-5.08,1.21L155.14,220a2.87,2.87,0,0,0,0,5.48l36.48,21.07a11.31,11.31,0,0,0,10.17,0l36.29-21.1a2.88,2.88,0,0,0,0-5.49L201.6,198.89A10.41,10.41,0,0,0,196.51,197.68Z" transform="translate(-94.7 -65.25)"/><path class="cls-10" d="M240.6,211.18h0V193.69l-22.1,2.95L202,187.09a11.61,11.61,0,0,0-10.52,0l-2.57,1.63L153,193.51v17.81h0a3.74,3.74,0,0,0,2.16,2.94l36.48,21.06a11.65,11.65,0,0,0,10.51,0l36.29-21.1a3.76,3.76,0,0,0,2.16-2.93h0Z" transform="translate(-94.7 -65.25)"/><path class="cls-11" d="M238.43,190.53,202,169.47a11.61,11.61,0,0,0-10.52,0l-36.28,21.1c-2.9,1.67-2.9,4.39,0,6.07l36.48,21.06a11.65,11.65,0,0,0,10.51,0l36.29-21.1C241.33,194.92,241.33,192.2,238.43,190.53Z" transform="translate(-94.7 -65.25)"/><path class="cls-4" d="M238.43,195.54l-36.29,21.1a11.65,11.65,0,0,1-10.51,0l-36.48-21.06a4.06,4.06,0,0,1-2.12-2.51c-.27,1.27.43,2.59,2.12,3.57l36.48,21.06a11.65,11.65,0,0,0,10.51,0l36.29-21.1c1.68-1,2.38-2.3,2.11-3.57A4.07,4.07,0,0,1,238.43,195.54Z" transform="translate(-94.7 -65.25)"/><polygon class="cls-4" points="112.34 157.11 110.61 158.11 110.61 156.12 112.34 155.12 112.34 157.11"/><polygon class="cls-4" points="115.95 155.03 114.23 156.03 114.23 154.03 115.95 153.03 115.95 155.03"/><polygon class="cls-4" points="119.57 152.94 117.84 153.94 117.84 151.94 119.57 150.95 119.57 152.94"/><polygon class="cls-4" points="116.61 158.69 114.89 159.69 114.89 157.69 116.61 156.69 116.61 158.69"/><polygon class="cls-4" points="119.8 156.85 118.07 157.85 118.07 155.85 119.8 154.86 119.8 156.85"/><polygon class="cls-4" points="131.16 146.25 129.43 147.25 129.43 145.25 131.16 144.26 131.16 146.25"/><polygon class="cls-4" points="141.11 140.5 139.38 141.5 139.38 139.51 141.11 138.51 141.11 140.5"/><polygon class="cls-4" points="123.18 150.86 121.45 151.85 121.45 149.86 123.18 148.86 123.18 150.86"/><path class="cls-5" d="M194.72,208.8l-24.54-14.17c-1-.58-.87-1.58.28-2.25l24-13.84a4.33,4.33,0,0,1,3.89-.17l24.55,14.17c1,.58.87,1.59-.28,2.25l-24,13.85A4.32,4.32,0,0,1,194.72,208.8Z" transform="translate(-94.7 -65.25)"/><path class="cls-4" d="M185.07,224.14l-20.26-11.7a2.09,2.09,0,0,1-.87-1.67v-1.5c0-.65.39-.94.87-.66l20.26,11.69a2.1,2.1,0,0,1,.87,1.67v1.5C185.94,224.12,185.55,224.42,185.07,224.14Z" transform="translate(-94.7 -65.25)"/><path class="cls-12" d="M240.6,178.37h0V160.88l-22.1,3L202,154.27a11.67,11.67,0,0,0-10.52,0l-2.57,1.64L153,160.7v17.81h0a3.72,3.72,0,0,0,2.16,2.94l36.48,21.07a11.65,11.65,0,0,0,10.51,0l36.29-21.11a3.75,3.75,0,0,0,2.16-2.92h0Z" transform="translate(-94.7 -65.25)"/><path class="cls-13" d="M238.43,157.71,202,136.65a11.67,11.67,0,0,0-10.52,0l-36.28,21.1c-2.9,1.68-2.9,4.4,0,6.07l36.48,21.06a11.59,11.59,0,0,0,10.51,0l36.29-21.1C241.33,162.11,241.33,159.39,238.43,157.71Z" transform="translate(-94.7 -65.25)"/><path class="cls-5" d="M221.05,159l-21.26-12.27a6.74,6.74,0,0,0-6.12,0L172.52,159c-1.69,1-1.69,2.56,0,3.54l21.26,12.27a6.76,6.76,0,0,0,6.13,0l21.14-12.29C222.74,161.55,222.74,160,221.05,159Z" transform="translate(-94.7 -65.25)"/><path class="cls-4" d="M238.43,162.72l-36.29,21.1a11.59,11.59,0,0,1-10.51,0l-36.48-21.06a4,4,0,0,1-2.12-2.5c-.27,1.27.43,2.59,2.12,3.56l36.48,21.06a11.59,11.59,0,0,0,10.51,0l36.29-21.1c1.68-1,2.38-2.29,2.11-3.56A4.06,4.06,0,0,1,238.43,162.72Z" transform="translate(-94.7 -65.25)"/><polygon class="cls-4" points="112.34 124.3 110.61 125.3 110.61 123.3 112.34 122.31 112.34 124.3"/><polygon class="cls-4" points="115.95 122.22 114.23 123.21 114.23 121.22 115.95 120.22 115.95 122.22"/><polygon class="cls-4" points="119.57 120.13 117.84 121.13 117.84 119.13 119.57 118.14 119.57 120.13"/><polygon class="cls-4" points="116.61 125.88 114.89 126.87 114.89 124.88 116.61 123.88 116.61 125.88"/><polygon class="cls-4" points="119.8 124.04 118.07 125.04 118.07 123.04 119.8 122.05 119.8 124.04"/><polygon class="cls-4" points="131.16 113.44 129.43 114.44 129.43 112.44 131.16 111.44 131.16 113.44"/><polygon class="cls-4" points="141.11 107.69 139.38 108.69 139.38 106.69 141.11 105.7 141.11 107.69"/><polygon class="cls-4" points="123.18 118.04 121.45 119.04 121.45 117.05 123.18 116.05 123.18 118.04"/><path class="cls-14" d="M240.6,145.56h0V128.07l-22.1,3L202,121.46a11.67,11.67,0,0,0-10.52,0l-2.57,1.64L153,127.89v17.8h0a3.72,3.72,0,0,0,2.16,2.94l36.48,21.06a11.59,11.59,0,0,0,10.51,0l36.29-21.1a3.75,3.75,0,0,0,2.16-2.93h0Z" transform="translate(-94.7 -65.25)"/><path class="cls-15" d="M238.43,124.9,202,103.84a11.61,11.61,0,0,0-10.52,0l-36.28,21.1c-2.9,1.68-2.9,4.39,0,6.07l36.48,21.06a11.59,11.59,0,0,0,10.51,0L238.43,131C241.33,129.3,241.33,126.58,238.43,124.9Z" transform="translate(-94.7 -65.25)"/><path class="cls-16" d="M238.43,124.9,202,103.84a11.61,11.61,0,0,0-10.52,0l-36.28,21.1c-2.9,1.68-2.9,4.39,0,6.07l36.48,21.06a11.59,11.59,0,0,0,10.51,0L238.43,131C241.33,129.3,241.33,126.58,238.43,124.9Z" transform="translate(-94.7 -65.25)"/><path class="cls-17" d="M196.85,145.25a7.48,7.48,0,0,1-3.72-.91l-24.17-14a2.58,2.58,0,0,1,0-4.84l24-14a8.08,8.08,0,0,1,7.44,0l24.17,14a2.58,2.58,0,0,1,0,4.84l-24,14A7.48,7.48,0,0,1,196.85,145.25Zm-.13-33.64a6.58,6.58,0,0,0-3.24.78l-24,14a1.66,1.66,0,0,0,0,3.2l24.17,14a7.16,7.16,0,0,0,6.5,0l24-14a1.66,1.66,0,0,0,0-3.2l-24.17-14A6.62,6.62,0,0,0,196.72,111.61Z" transform="translate(-94.7 -65.25)"/><path class="cls-4" d="M238.43,129.91,202.14,151a11.59,11.59,0,0,1-10.51,0L155.15,130a4,4,0,0,1-2.12-2.5c-.27,1.26.43,2.59,2.12,3.56l36.48,21.06a11.59,11.59,0,0,0,10.51,0L238.43,131c1.68-1,2.38-2.3,2.11-3.56A4.06,4.06,0,0,1,238.43,129.91Z" transform="translate(-94.7 -65.25)"/><polygon class="cls-4" points="112.34 91.49 110.61 92.49 110.61 90.49 112.34 89.5 112.34 91.49"/><polygon class="cls-4" points="115.95 89.4 114.23 90.4 114.23 88.41 115.95 87.41 115.95 89.4"/><polygon class="cls-4" points="119.57 87.32 117.84 88.31 117.84 86.32 119.57 85.32 119.57 87.32"/><polygon class="cls-4" points="116.61 93.06 114.89 94.06 114.89 92.07 116.61 91.07 116.61 93.06"/><polygon class="cls-4" points="119.8 91.23 118.07 92.22 118.07 90.23 119.8 89.23 119.8 91.23"/><polygon class="cls-4" points="131.16 80.63 129.43 81.62 129.43 79.63 131.16 78.63 131.16 80.63"/><polygon class="cls-4" points="141.11 74.88 139.38 75.88 139.38 73.88 141.11 72.89 141.11 74.88"/><polygon class="cls-4" points="123.18 85.23 121.45 86.23 121.45 84.23 123.18 83.24 123.18 85.23"/><path class="cls-1" d="M325.52,248.38a11.11,11.11,0,0,1-5.42-1.29L283.62,226a3.53,3.53,0,0,1,0-6.66l36.28-21.1a12,12,0,0,1,10.86,0l36.48,21.06a3.54,3.54,0,0,1,0,6.66L331,247.09A11.15,11.15,0,0,1,325.52,248.38Zm-.19-50.74a10.44,10.44,0,0,0-5.09,1.22L284,220a2.88,2.88,0,0,0,0,5.49l36.48,21.06a11.25,11.25,0,0,0,10.17,0l36.29-21.1a2.88,2.88,0,0,0,0-5.48l-36.48-21.06A10.41,10.41,0,0,0,325.33,197.64Z" transform="translate(-94.7 -65.25)"/><path class="cls-18" d="M369.42,211.15h0V193.66l-22.1,3-16.55-9.56a11.61,11.61,0,0,0-10.52,0l-2.57,1.64-35.89,4.79v17.8h0a3.72,3.72,0,0,0,2.16,2.94l36.48,21.06a11.59,11.59,0,0,0,10.51,0l36.29-21.1a3.72,3.72,0,0,0,2.15-2.93h0Z" transform="translate(-94.7 -65.25)"/><path class="cls-19" d="M367.25,190.49l-36.48-21.06a11.61,11.61,0,0,0-10.52,0L284,190.53c-2.91,1.68-2.91,4.39,0,6.07l36.48,21.06a11.59,11.59,0,0,0,10.51,0l36.29-21.1C370.15,194.88,370.15,192.17,367.25,190.49Z" transform="translate(-94.7 -65.25)"/><path class="cls-4" d="M367.25,195.5,331,216.6a11.59,11.59,0,0,1-10.51,0L284,195.54a4,4,0,0,1-2.12-2.51c-.27,1.27.43,2.59,2.12,3.57l36.48,21.06a11.59,11.59,0,0,0,10.51,0l36.29-21.1c1.68-1,2.38-2.3,2.11-3.57A4,4,0,0,1,367.25,195.5Z" transform="translate(-94.7 -65.25)"/><polygon class="cls-4" points="241.16 157.08 239.43 158.07 239.43 156.08 241.16 155.08 241.16 157.08"/><polygon class="cls-4" points="244.77 154.99 243.05 155.99 243.05 153.99 244.77 153 244.77 154.99"/><polygon class="cls-4" points="248.39 152.91 246.66 153.9 246.66 151.91 248.39 150.91 248.39 152.91"/><polygon class="cls-4" points="245.43 158.65 243.71 159.65 243.71 157.65 245.43 156.66 245.43 158.65"/><polygon class="cls-4" points="248.61 156.81 246.89 157.81 246.89 155.82 248.61 154.82 248.61 156.81"/><polygon class="cls-4" points="259.98 146.21 258.25 147.21 258.25 145.22 259.98 144.22 259.98 146.21"/><polygon class="cls-4" points="269.93 140.47 268.2 141.47 268.2 139.47 269.93 138.47 269.93 140.47"/><polygon class="cls-4" points="252 150.82 250.27 151.82 250.27 149.82 252 148.82 252 150.82"/><path class="cls-5" d="M323.54,208.76,299,194.59c-1-.57-.87-1.58.28-2.24l24-13.85a4.29,4.29,0,0,1,3.89-.16l24.55,14.17c1,.57.87,1.58-.28,2.24l-24,13.85A4.29,4.29,0,0,1,323.54,208.76Z" transform="translate(-94.7 -65.25)"/><path class="cls-4" d="M313.89,224.1l-20.26-11.69a2.11,2.11,0,0,1-.87-1.68v-1.5c0-.64.39-.94.87-.66l20.26,11.69a2.1,2.1,0,0,1,.87,1.67v1.51C314.76,224.08,314.37,224.38,313.89,224.1Z" transform="translate(-94.7 -65.25)"/><path class="cls-20" d="M369.42,178.33h0V160.84l-22.1,2.95-16.55-9.55a11.61,11.61,0,0,0-10.52,0l-2.57,1.64-35.89,4.78v17.81h0a3.74,3.74,0,0,0,2.16,2.94l36.48,21.06a11.65,11.65,0,0,0,10.51,0l36.29-21.1a3.72,3.72,0,0,0,2.15-2.93h0Z" transform="translate(-94.7 -65.25)"/><path class="cls-21" d="M367.25,157.68l-36.48-21.06a11.61,11.61,0,0,0-10.52,0L284,157.72c-2.91,1.67-2.91,4.39,0,6.07l36.48,21.06a11.65,11.65,0,0,0,10.51,0l36.29-21.1C370.15,162.07,370.15,159.35,367.25,157.68Z" transform="translate(-94.7 -65.25)"/><path class="cls-5" d="M349.87,159l-21.26-12.27a6.74,6.74,0,0,0-6.12,0L301.34,159c-1.69,1-1.69,2.55,0,3.53l21.26,12.27a6.74,6.74,0,0,0,6.12,0l21.15-12.29C351.56,161.51,351.56,159.93,349.87,159Z" transform="translate(-94.7 -65.25)"/><path class="cls-4" d="M367.25,162.69,331,183.79a11.65,11.65,0,0,1-10.51,0L284,162.73a4.06,4.06,0,0,1-2.12-2.51c-.27,1.27.43,2.59,2.12,3.57l36.48,21.06a11.65,11.65,0,0,0,10.51,0l36.29-21.1c1.68-1,2.38-2.3,2.11-3.57A4.07,4.07,0,0,1,367.25,162.69Z" transform="translate(-94.7 -65.25)"/><polygon class="cls-4" points="241.16 124.27 239.43 125.26 239.43 123.27 241.16 122.27 241.16 124.27"/><polygon class="cls-4" points="244.77 122.18 243.05 123.18 243.05 121.18 244.77 120.19 244.77 122.18"/><polygon class="cls-4" points="248.39 120.09 246.66 121.09 246.66 119.1 248.39 118.1 248.39 120.09"/><polygon class="cls-4" points="245.43 125.84 243.71 126.84 243.71 124.84 245.43 123.84 245.43 125.84"/><polygon class="cls-4" points="248.61 124 246.89 125 246.89 123 248.61 122.01 248.61 124"/><polygon class="cls-4" points="259.98 113.4 258.25 114.4 258.25 112.41 259.98 111.41 259.98 113.4"/><polygon class="cls-4" points="269.93 107.66 268.2 108.65 268.2 106.66 269.93 105.66 269.93 107.66"/><polygon class="cls-4" points="252 118.01 250.27 119 250.27 117.01 252 116.01 252 118.01"/><path class="cls-22" d="M369.42,145.52h0V128L347.32,131l-16.55-9.56a11.67,11.67,0,0,0-10.52,0l-2.57,1.64-35.89,4.79v17.81h0a3.72,3.72,0,0,0,2.16,2.93l36.48,21.07a11.65,11.65,0,0,0,10.51,0l36.29-21.11a3.71,3.71,0,0,0,2.15-2.92h0Z" transform="translate(-94.7 -65.25)"/><path class="cls-23" d="M367.25,124.87,330.77,103.8a11.67,11.67,0,0,0-10.52,0L284,124.9c-2.91,1.68-2.91,4.4,0,6.07L320.45,152A11.59,11.59,0,0,0,331,152l36.29-21.1C370.15,129.26,370.15,126.54,367.25,124.87Z" transform="translate(-94.7 -65.25)"/><path class="cls-4" d="M367.25,129.87,331,151a11.59,11.59,0,0,1-10.51,0L284,129.91a4,4,0,0,1-2.12-2.5c-.27,1.27.43,2.59,2.12,3.56L320.45,152A11.59,11.59,0,0,0,331,152l36.29-21.1c1.68-1,2.38-2.29,2.11-3.56A4,4,0,0,1,367.25,129.87Z" transform="translate(-94.7 -65.25)"/><polygon class="cls-4" points="241.16 91.45 239.43 92.45 239.43 90.45 241.16 89.46 241.16 91.45"/><polygon class="cls-4" points="244.77 89.37 243.05 90.36 243.05 88.37 244.77 87.37 244.77 89.37"/><polygon class="cls-4" points="248.39 87.28 246.66 88.28 246.66 86.28 248.39 85.29 248.39 87.28"/><polygon class="cls-4" points="245.43 93.03 243.71 94.02 243.71 92.03 245.43 91.03 245.43 93.03"/><polygon class="cls-4" points="248.61 91.19 246.89 92.19 246.89 90.19 248.61 89.19 248.61 91.19"/><polygon class="cls-4" points="259.98 80.59 258.25 81.59 258.25 79.59 259.98 78.59 259.98 80.59"/><polygon class="cls-4" points="269.93 74.84 268.2 75.84 268.2 73.85 269.93 72.85 269.93 74.84"/><polygon class="cls-4" points="252 85.19 250.27 86.19 250.27 84.2 252 83.2 252 85.19"/><path class="cls-1" d="M261,285.71a11.15,11.15,0,0,1-5.43-1.29l-36.48-21.06a3.54,3.54,0,0,1,0-6.66l36.29-21.1a12,12,0,0,1,10.85,0l36.48,21.06a3.53,3.53,0,0,1,0,6.66l-36.29,21.1A11.11,11.11,0,0,1,261,285.71ZM260.81,235a10.39,10.39,0,0,0-5.09,1.22l-36.29,21.1a2.87,2.87,0,0,0,0,5.48l36.48,21.06a11.25,11.25,0,0,0,10.17,0l36.29-21.1a2.87,2.87,0,0,0,0-5.48l-36.48-21.06A10.37,10.37,0,0,0,260.81,235Z" transform="translate(-94.7 -65.25)"/><path class="cls-24" d="M293.51,257.62l-28.57-16.5a9.11,9.11,0,0,0-8.23,0l-28.42,16.53c-2.28,1.31-2.28,3.44,0,4.75l28.57,16.5a9.11,9.11,0,0,0,8.23,0l28.43-16.53C295.79,261.06,295.79,258.93,293.51,257.62Z" transform="translate(-94.7 -65.25)"/><path class="cls-25" d="M304.9,248.48h0V231l-22.1,2.95-16.55-9.56a11.65,11.65,0,0,0-10.51,0L253.15,226l-35.88,4.79v17.81h0a3.72,3.72,0,0,0,2.16,2.94l36.48,21.06a11.59,11.59,0,0,0,10.51,0l36.29-21.1a3.75,3.75,0,0,0,2.16-2.93h0Z" transform="translate(-94.7 -65.25)"/><path class="cls-26" d="M302.72,227.82l-36.48-21.06a11.65,11.65,0,0,0-10.51,0l-36.29,21.1c-2.9,1.68-2.9,4.4,0,6.07L255.92,255a11.59,11.59,0,0,0,10.51,0l36.29-21.1C305.62,232.22,305.62,229.5,302.72,227.82Z" transform="translate(-94.7 -65.25)"/><path class="cls-4" d="M302.72,232.83l-36.29,21.1a11.59,11.59,0,0,1-10.51,0l-36.48-21.06a4,4,0,0,1-2.11-2.5c-.27,1.26.43,2.59,2.11,3.56L255.92,255a11.59,11.59,0,0,0,10.51,0l36.29-21.1c1.68-1,2.38-2.29,2.11-3.56A4,4,0,0,1,302.72,232.83Z" transform="translate(-94.7 -65.25)"/><polygon class="cls-4" points="176.63 194.41 174.91 195.41 174.91 193.41 176.63 192.42 176.63 194.41"/><polygon class="cls-4" points="180.25 192.32 178.52 193.32 178.52 191.33 180.25 190.33 180.25 192.32"/><polygon class="cls-4" points="183.86 190.24 182.13 191.24 182.13 189.24 183.86 188.24 183.86 190.24"/><polygon class="cls-4" points="180.91 195.98 179.18 196.98 179.18 194.99 180.91 193.99 180.91 195.98"/><polygon class="cls-4" points="184.09 194.15 182.36 195.14 182.36 193.15 184.09 192.15 184.09 194.15"/><polygon class="cls-4" points="195.45 183.55 193.72 184.54 193.72 182.55 195.45 181.55 195.45 183.55"/><polygon class="cls-4" points="205.4 177.8 203.68 178.8 203.68 176.8 205.4 175.81 205.4 177.8"/><polygon class="cls-4" points="187.47 188.15 185.75 189.15 185.75 187.16 187.47 186.16 187.47 188.15"/><path class="cls-5" d="M259,246.09l-24.55-14.16c-1-.58-.87-1.59.28-2.25l24-13.85a4.32,4.32,0,0,1,3.89-.16l24.54,14.17c1,.58.87,1.58-.28,2.25l-24,13.84A4.29,4.29,0,0,1,259,246.09Z" transform="translate(-94.7 -65.25)"/><path class="cls-4" d="M249.36,261.43l-20.25-11.69a2.09,2.09,0,0,1-.88-1.67v-1.51c0-.64.39-.94.88-.66l20.25,11.69a2.12,2.12,0,0,1,.88,1.68v1.5C250.24,261.42,249.84,261.71,249.36,261.43Z" transform="translate(-94.7 -65.25)"/><path class="cls-27" d="M304.9,215.67h0V198.18l-22.1,2.95-16.55-9.56a11.59,11.59,0,0,0-10.51,0l-2.58,1.64L217.27,198v17.8h0a3.72,3.72,0,0,0,2.16,2.94l36.48,21.06a11.59,11.59,0,0,0,10.51,0l36.29-21.1a3.76,3.76,0,0,0,2.16-2.93h0Z" transform="translate(-94.7 -65.25)"/><path class="cls-28" d="M302.72,195,266.24,174a11.59,11.59,0,0,0-10.51,0l-36.29,21.1c-2.9,1.68-2.9,4.39,0,6.07l36.48,21.06a11.59,11.59,0,0,0,10.51,0l36.29-21.1C305.62,199.4,305.62,196.69,302.72,195Z" transform="translate(-94.7 -65.25)"/><path class="cls-5" d="M285.34,196.29,264.09,184a6.82,6.82,0,0,0-6.13,0l-21.14,12.3c-1.69,1-1.69,2.56,0,3.53l21.25,12.28a6.82,6.82,0,0,0,6.13,0l21.14-12.3C287,198.84,287,197.26,285.34,196.29Z" transform="translate(-94.7 -65.25)"/><path class="cls-4" d="M302.72,200l-36.29,21.1a11.59,11.59,0,0,1-10.51,0l-36.48-21.06a4,4,0,0,1-2.11-2.51c-.27,1.27.43,2.6,2.11,3.57l36.48,21.06a11.59,11.59,0,0,0,10.51,0l36.29-21.1c1.68-1,2.38-2.3,2.11-3.56A4,4,0,0,1,302.72,200Z" transform="translate(-94.7 -65.25)"/><polygon class="cls-4" points="176.63 161.6 174.91 162.59 174.91 160.6 176.63 159.6 176.63 161.6"/><polygon class="cls-4" points="180.25 159.51 178.52 160.51 178.52 158.51 180.25 157.52 180.25 159.51"/><polygon class="cls-4" points="183.86 157.43 182.13 158.42 182.13 156.43 183.86 155.43 183.86 157.43"/><polygon class="cls-4" points="180.91 163.17 179.18 164.17 179.18 162.17 180.91 161.18 180.91 163.17"/><polygon class="cls-4" points="184.09 161.34 182.36 162.33 182.36 160.34 184.09 159.34 184.09 161.34"/><polygon class="cls-4" points="195.45 150.74 193.72 151.73 193.72 149.74 195.45 148.74 195.45 150.74"/><polygon class="cls-4" points="205.4 144.99 203.68 145.99 203.68 143.99 205.4 142.99 205.4 144.99"/><polygon class="cls-4" points="187.47 155.34 185.75 156.34 185.75 154.34 187.47 153.34 187.47 155.34"/><path class="cls-29" d="M304.9,182.85h0V165.36l-22.1,2.95-16.55-9.55a11.59,11.59,0,0,0-10.51,0l-2.58,1.64-35.88,4.78V183h0a3.74,3.74,0,0,0,2.16,2.94L255.92,207a11.65,11.65,0,0,0,10.51,0l36.29-21.1a3.76,3.76,0,0,0,2.16-2.93h0Z" transform="translate(-94.7 -65.25)"/><path class="cls-30" d="M302.72,162.2l-36.48-21.06a11.59,11.59,0,0,0-10.51,0l-36.29,21.1c-2.9,1.67-2.9,4.39,0,6.07l36.48,21.06a11.65,11.65,0,0,0,10.51,0l36.29-21.1C305.62,166.59,305.62,163.87,302.72,162.2Z" transform="translate(-94.7 -65.25)"/><path class="cls-4" d="M302.72,167.21l-36.29,21.1a11.65,11.65,0,0,1-10.51,0l-36.48-21.06a4,4,0,0,1-2.11-2.51c-.27,1.27.43,2.59,2.11,3.57l36.48,21.06a11.65,11.65,0,0,0,10.51,0l36.29-21.1c1.68-1,2.38-2.3,2.11-3.57A4,4,0,0,1,302.72,167.21Z" transform="translate(-94.7 -65.25)"/><polygon class="cls-4" points="176.63 128.78 174.91 129.78 174.91 127.79 176.63 126.79 176.63 128.78"/><polygon class="cls-4" points="180.25 126.7 178.52 127.7 178.52 125.7 180.25 124.7 180.25 126.7"/><polygon class="cls-4" points="183.86 124.61 182.13 125.61 182.13 123.62 183.86 122.62 183.86 124.61"/><polygon class="cls-4" points="180.91 130.36 179.18 131.36 179.18 129.36 180.91 128.37 180.91 130.36"/><polygon class="cls-4" points="184.09 128.52 182.36 129.52 182.36 127.53 184.09 126.53 184.09 128.52"/><polygon class="cls-4" points="195.45 117.92 193.72 118.92 193.72 116.92 195.45 115.93 195.45 117.92"/><polygon class="cls-4" points="205.4 112.18 203.68 113.17 203.68 111.18 205.4 110.18 205.4 112.18"/><polygon class="cls-4" points="187.47 122.53 185.75 123.52 185.75 121.53 187.47 120.53 187.47 122.53"/><rect class="cls-1" x="379.17" y="218.75" width="0.68" height="72.51" transform="translate(-125.79 390.9) rotate(-60)"/><path class="cls-1" d="M437.38,258l-20.07-11.59a16.58,16.58,0,0,0-6.83-1.95L389,242.81a17.18,17.18,0,0,1-7.12-2l-20.06-11.58.34-.59,20.06,11.58a16.48,16.48,0,0,0,6.83,1.95l21.54,1.7a17.13,17.13,0,0,1,7.11,2l20.07,11.58Z" transform="translate(-94.7 -65.25)"/><path class="cls-1" d="M384.09,288.81,364,277.22A7.11,7.11,0,0,1,360.4,273l-2.93-12.43a6.38,6.38,0,0,0-3.29-3.81l-20.07-11.59.34-.59,20.07,11.59a7.06,7.06,0,0,1,3.61,4.24l2.93,12.43a6.44,6.44,0,0,0,3.3,3.81l20.07,11.59Z" transform="translate(-94.7 -65.25)"/><path class="cls-1" d="M397.41,281.11,376,268.77a9,9,0,0,1-2.59-2.18l-8.62-11.08a8.22,8.22,0,0,0-2.4-2L341,241.16l.34-.59,21.38,12.35a8.89,8.89,0,0,1,2.6,2.18L374,266.17a8.24,8.24,0,0,0,2.4,2l21.39,12.35Z" transform="translate(-94.7 -65.25)"/><path class="cls-1" d="M424.05,265.73l-21.38-12.35a14.37,14.37,0,0,0-3.54-1.41L380,247a14.6,14.6,0,0,1-3.71-1.48l-21.39-12.34.34-.59,21.39,12.35a14,14,0,0,0,3.54,1.4l19.18,5A14.6,14.6,0,0,1,403,252.8l21.38,12.34Z" transform="translate(-94.7 -65.25)"/><rect class="cls-1" x="89.85" y="246.96" width="74.89" height="0.68" transform="translate(-201.2 31.37) rotate(-29.96)"/><rect class="cls-1" x="99.13" y="252.32" width="74.89" height="0.68" transform="translate(-202.63 36.72) rotate(-29.96)"/><rect class="cls-1" x="108.4" y="257.67" width="74.89" height="0.68" transform="translate(-204.07 42.07) rotate(-29.96)"/><rect class="cls-1" x="117.68" y="263.03" width="74.89" height="0.68" transform="translate(-205.5 47.42) rotate(-29.96)"/></svg>