<svg xmlns="http://www.w3.org/2000/svg" xmlns:xlink="http://www.w3.org/1999/xlink" width="598.656" height="596.329" viewBox="0 0 598.656 596.329">
  <defs>
    <linearGradient id="linear-gradient" x1="2.304" y1="0.949" x2="1.488" y2="-0.08" gradientUnits="objectBoundingBox">
      <stop offset="0" stop-color="#ffc444"/>
      <stop offset="1" stop-color="#f36f56"/>
    </linearGradient>
    <clipPath id="clip-path">
      <path id="Path_1337" data-name="Path 1337" d="M681.865,1302.495c33.7-1.725,42.2-12.065,44.85-18.075,3.1-7.028-.5-11.117-11.007-43.36-9.179-28.181-16.785-52.232-17.172-59.673-2.607-49.934-55.42-38.406-63.892-102.3-2.255-17-.873-50.16-16.987-61.812-18.358-13.273-28.285,3.429-40.48-8.093-14.071-13.283-32.779-18.791-46.9-11.584a31.9,31.9,0,0,0-12.883,12.7c-10.9,21.242,4.14,60.059,31.033,81.495,26.23,20.908,53.386,17.019,64.744,42.488.8,1.8,1.838,6.176,3.91,14.945,9.859,41.707,5.976,48.1,12.455,64.355,7.8,19.558,15.973,16.693,32.2,42.55A170.465,170.465,0,0,1,681.865,1302.495Z" transform="translate(-513.822 -994.407)" fill="none"/>
    </clipPath>
    <linearGradient id="linear-gradient-2" x1="2.156" y1="-0.194" x2="2.778" y2="0.83" gradientUnits="objectBoundingBox">
      <stop offset="0" stop-color="#e38ddd"/>
      <stop offset="1" stop-color="#9571f6"/>
    </linearGradient>
    <clipPath id="clip-path-2">
      <path id="Path_1344" data-name="Path 1344" d="M612.921,1707.706l55.8-3.678c2.728-8.112,5.919-22.954-5.991-25.77-16.557-3.923-18.612-32.523-14.738-42.91,4.794-12.853,15.334-43.021-10.157-49.478-21.229-5.386-36.031-4.521-39.047-31.277s-18.64-42.652-42.889-39.643c-25.521,3.167-48.505-29.714-68.829-17.091-35.416,22,1.148,79.227,46.614,93.779s20.886,32.061,20.961,54.1c.1,30.083,40.271,21.323,51.663,32.483C615.232,1686.958,614.414,1699.792,612.921,1707.706Z" transform="translate(-472.865 -1494.958)" fill="none"/>
    </clipPath>
    <linearGradient id="linear-gradient-3" x1="0.199" x2="0.814" y2="1.023" gradientUnits="objectBoundingBox">
      <stop offset="0" stop-color="#444b8c"/>
      <stop offset="1" stop-color="#26264f"/>
    </linearGradient>
    <linearGradient id="linear-gradient-4" x1="0.321" y1="0.065" x2="0.859" y2="1.371" gradientUnits="objectBoundingBox">
      <stop offset="0" stop-color="#ff9085"/>
      <stop offset="1" stop-color="#fb6fbb"/>
    </linearGradient>
    <linearGradient id="linear-gradient-5" x1="0.478" y1="0.082" x2="0.543" y2="1.296" xlink:href="#linear-gradient-4"/>
    <linearGradient id="linear-gradient-6" x1="0.368" y1="0.038" x2="0.739" y2="1.337" xlink:href="#linear-gradient-4"/>
    <linearGradient id="linear-gradient-7" x1="0.441" y1="0.032" x2="0.602" y2="1.307" xlink:href="#linear-gradient-4"/>
    <linearGradient id="linear-gradient-8" x1="0.344" y1="0.007" x2="0.755" y2="1.309" xlink:href="#linear-gradient-4"/>
    <linearGradient id="linear-gradient-9" x1="0.389" y1="-0.005" x2="0.673" y2="1.289" xlink:href="#linear-gradient-4"/>
    <linearGradient id="linear-gradient-10" x1="0.301" y1="-0.024" x2="0.796" y2="1.281" xlink:href="#linear-gradient-4"/>
    <linearGradient id="linear-gradient-11" x1="0.274" y1="-0.04" x2="0.821" y2="1.267" xlink:href="#linear-gradient-4"/>
    <linearGradient id="linear-gradient-12" x1="0.384" y1="-0.049" x2="0.658" y2="1.244" xlink:href="#linear-gradient-4"/>
    <linearGradient id="linear-gradient-13" x1="0.238" y1="-0.07" x2="0.839" y2="1.238" xlink:href="#linear-gradient-4"/>
    <linearGradient id="linear-gradient-14" x1="0.27" y1="-0.084" x2="0.784" y2="1.222" xlink:href="#linear-gradient-4"/>
    <linearGradient id="linear-gradient-15" x1="0.437" y1="-0.081" x2="0.575" y2="1.186" xlink:href="#linear-gradient-4"/>
    <linearGradient id="linear-gradient-16" x1="0.347" y1="-0.109" x2="0.673" y2="1.188" xlink:href="#linear-gradient-4"/>
    <linearGradient id="linear-gradient-17" x1="0.274" y1="-0.128" x2="0.744" y2="1.176" xlink:href="#linear-gradient-4"/>
    <linearGradient id="linear-gradient-18" x1="0.331" y1="-0.14" x2="0.674" y2="1.158" xlink:href="#linear-gradient-4"/>
    <linearGradient id="linear-gradient-19" x1="0.23" y1="-0.159" x2="0.765" y2="1.147" xlink:href="#linear-gradient-4"/>
    <linearGradient id="linear-gradient-20" x1="0.193" y1="-0.175" x2="0.788" y2="1.133" xlink:href="#linear-gradient-4"/>
    <linearGradient id="linear-gradient-21" x1="0.196" y1="-0.034" x2="0.817" y2="1.058" xlink:href="#linear-gradient-3"/>
    <linearGradient id="linear-gradient-22" x1="0.32" y1="0.062" x2="0.859" y2="1.375" xlink:href="#linear-gradient-4"/>
    <linearGradient id="linear-gradient-23" x1="0.477" y1="0.066" x2="0.543" y2="1.324" xlink:href="#linear-gradient-4"/>
    <linearGradient id="linear-gradient-24" x1="0.368" y1="0.034" x2="0.739" y2="1.343" xlink:href="#linear-gradient-4"/>
    <linearGradient id="linear-gradient-25" x1="0.441" y1="0.024" x2="0.602" y2="1.318" xlink:href="#linear-gradient-4"/>
    <linearGradient id="linear-gradient-26" x1="0.344" y1="0.003" x2="0.756" y2="1.314" xlink:href="#linear-gradient-4"/>
    <linearGradient id="linear-gradient-27" x1="0.388" y1="-0.01" x2="0.674" y2="1.296" xlink:href="#linear-gradient-4"/>
    <linearGradient id="linear-gradient-28" x1="0.301" y1="-0.027" x2="0.797" y2="1.285" xlink:href="#linear-gradient-4"/>
    <linearGradient id="linear-gradient-29" x1="0.273" y1="-0.043" x2="0.822" y2="1.271" xlink:href="#linear-gradient-4"/>
    <linearGradient id="linear-gradient-30" x1="0.383" y1="-0.054" x2="0.659" y2="1.251" xlink:href="#linear-gradient-4"/>
    <linearGradient id="linear-gradient-31" x1="0.237" y1="-0.073" x2="0.84" y2="1.241" xlink:href="#linear-gradient-4"/>
    <linearGradient id="linear-gradient-32" x1="0.27" y1="-0.088" x2="0.785" y2="1.225" xlink:href="#linear-gradient-4"/>
    <linearGradient id="linear-gradient-33" x1="0.436" y1="-0.092" x2="0.575" y2="1.198" xlink:href="#linear-gradient-4"/>
    <linearGradient id="linear-gradient-34" x1="0.347" y1="-0.115" x2="0.673" y2="1.193" xlink:href="#linear-gradient-4"/>
    <linearGradient id="linear-gradient-35" x1="0.273" y1="-0.132" x2="0.744" y2="1.18" xlink:href="#linear-gradient-4"/>
    <linearGradient id="linear-gradient-36" x1="0.33" y1="-0.145" x2="0.675" y2="1.163" xlink:href="#linear-gradient-4"/>
    <linearGradient id="linear-gradient-37" x1="0.23" y1="-0.163" x2="0.765" y2="1.15" xlink:href="#linear-gradient-4"/>
    <linearGradient id="linear-gradient-38" x1="0.192" y1="-0.178" x2="0.789" y2="1.136" xlink:href="#linear-gradient-4"/>
    <linearGradient id="linear-gradient-39" x1="0.5" y1="0.833" x2="0.5" y2="0.531" gradientUnits="objectBoundingBox">
      <stop offset="0" stop-color="#40447e"/>
      <stop offset="1" stop-color="#3c3b6b"/>
    </linearGradient>
    <linearGradient id="linear-gradient-40" x1="0.57" y1="0.933" x2="0.212" y2="-1.046" xlink:href="#linear-gradient-3"/>
    <linearGradient id="linear-gradient-41" y1="0.5" x2="1" y2="0.5" gradientUnits="objectBoundingBox">
      <stop offset="0.49" stop-color="#ebeff2"/>
      <stop offset="1" stop-color="#fff"/>
    </linearGradient>
    <linearGradient id="linear-gradient-42" x1="0" y1="0.5" y2="0.5" xlink:href="#linear-gradient-41"/>
    <linearGradient id="linear-gradient-43" x1="0" y1="0.5" y2="0.5" xlink:href="#linear-gradient-41"/>
    <linearGradient id="linear-gradient-45" x1="0" y1="0.5" x2="1" y2="0.5" xlink:href="#linear-gradient-3"/>
    <linearGradient id="linear-gradient-46" x1="0.599" y1="-0.035" x2="0.183" y2="2.063" gradientUnits="objectBoundingBox">
      <stop offset="0" stop-color="#aa80f9"/>
      <stop offset="1" stop-color="#6165d7"/>
    </linearGradient>
    <linearGradient id="linear-gradient-47" x1="0.578" y1="-0.511" x2="0.155" y2="5.467" xlink:href="#linear-gradient-3"/>
    <linearGradient id="linear-gradient-48" x1="0.56" y1="0.061" x2="0.227" y2="2.246" xlink:href="#linear-gradient-2"/>
    <linearGradient id="linear-gradient-49" x1="0.583" y1="-0.818" x2="0.134" y2="6.785" xlink:href="#linear-gradient-3"/>
    <linearGradient id="linear-gradient-50" x1="0" y1="0.5" x2="1" y2="0.5" xlink:href="#linear-gradient-4"/>
    <linearGradient id="linear-gradient-51" x1="0.578" y1="-0.617" x2="0.158" y2="5.955" xlink:href="#linear-gradient-3"/>
    <linearGradient id="linear-gradient-52" x1="0.577" y1="0.125" x2="0.264" y2="1.498" xlink:href="#linear-gradient-46"/>
    <linearGradient id="linear-gradient-53" x1="0.584" y1="-0.766" x2="0.132" y2="6.549" xlink:href="#linear-gradient-3"/>
    <linearGradient id="linear-gradient-54" x1="-56.786" y1="8.639" x2="-56.021" y2="9.325" gradientUnits="objectBoundingBox">
      <stop offset="0" stop-color="#ab316d"/>
      <stop offset="1" stop-color="#792d3d"/>
    </linearGradient>
    <linearGradient id="linear-gradient-55" x1="-40.464" y1="1.152" x2="-40.464" y2="-0.028" xlink:href="#linear-gradient-54"/>
    <linearGradient id="linear-gradient-56" x1="-44.465" y1="0.734" x2="-44.465" y2="-0.116" xlink:href="#linear-gradient-54"/>
    <linearGradient id="linear-gradient-57" x1="-7.567" y1="1.09" x2="-8.223" y2="-0.252" xlink:href="#linear-gradient-3"/>
    <linearGradient id="linear-gradient-58" x1="0.217" y1="-0.032" x2="0.869" y2="1.219" xlink:href="#linear-gradient"/>
    <linearGradient id="linear-gradient-59" x1="-15.075" y1="0.292" x2="-15.822" y2="1.156" xlink:href="#linear-gradient-54"/>
    <linearGradient id="linear-gradient-60" x1="-112.095" y1="-22.156" x2="-115.538" y2="-16.423" xlink:href="#linear-gradient-54"/>
    <linearGradient id="linear-gradient-61" x1="0.47" y1="0.467" x2="1.237" y2="2.159" xlink:href="#linear-gradient"/>
    <linearGradient id="linear-gradient-62" x1="-72.084" y1="-1.13" x2="-71.049" y2="3.498" xlink:href="#linear-gradient-54"/>
    <linearGradient id="linear-gradient-63" x1="-0.061" y1="-0.29" x2="0.901" y2="1.233" xlink:href="#linear-gradient"/>
  </defs>
  <g id="data_modelling" data-name="data modelling" transform="translate(-2379.595 886.999)">
    <g id="Illustration" transform="translate(2379.595 -886.999)">
      <g id="Big_data_visualization" data-name="Big data visualization" transform="translate(0 0)">
        <g id="Big_data_analytics_1" data-name="Big data analytics 1">
          <path id="Path_1327" data-name="Path 1327" d="M642.549,471.475c-55.42,22.682-95.66,63.021-95.66,63.021-18.367,18.414-36.474,36.576-46.822,62.461-33.437,83.676,59.4,145.615,26.1,226.729-18.693,45.534-56.377,54.784-54.507,92.81,2.053,41.743,49.436,70.85,67.66,82.051,106.6,65.5,360.743,97.691,480.376-72.625,60.562-86.216,67.833-210.419,15.726-309.474C948.564,451.346,733.692,434.17,642.549,471.475Z" transform="translate(-471.595 -455.001)" fill="#f4f7fa"/>
        </g>
        <path id="Path_1328" data-name="Path 1328" d="M657.6,1256.1c-4.57,14.638,3.335,27.636,10.4,36.155a7.175,7.175,0,0,1,1.832,0c.965.115,1.685.213,1.876.255,24.492,4.984,32.8,3.457,32.8,3.457,10.421-1.917,18.444-11.571,21.8-19.381,5.039-11.714,1.171-22.95-4.362-38.28-9.371-25.936-19.027-29.906-27.535-56.956-4.547-14.461-1.171-12.817-5.112-20.58-13.969-27.61-51.753-28.539-58.8-81.725-2.255-17-.873-50.16-16.987-61.812-18.358-13.273-28.285,3.429-40.48-8.093-19.063-18-46.641-21.724-59.78,1.116-12.966,22.539-.017,73.532,51.612,100.058,34.883,23.225,47.907,18.608,48.07,38.87.115,14.19-8.412,52.324,12.455,64.355S662.824,1239.371,657.6,1256.1Z" transform="translate(-500.7 -879.501)" fill="url(#linear-gradient)"/>
        <g id="Group_4" data-name="Group 4" transform="translate(8.993 114.88)" opacity="0.4">
          <g id="Group_3" data-name="Group 3" clip-path="url(#clip-path)">
            <path id="Path_1329" data-name="Path 1329" d="M644.125,1294.132c-1.44-5.522-2.96-11.075-4.515-16.49-11.533-40.146-26.392-77.76-44.167-111.8a482.2,482.2,0,0,0-51.585-79.3,402.529,402.529,0,0,0-49.54-51.585A323.038,323.038,0,0,0,457.09,1007c-2.149-1.371-4.436-2.662-6.647-3.908-2.982-1.687-6.08-3.429-8.913-5.416l.639-.9c2.788,1.955,5.855,3.687,8.821,5.359,2.223,1.254,4.526,2.556,6.7,3.94a323.15,323.15,0,0,1,37.356,28.062,403.215,403.215,0,0,1,49.664,51.727,482.587,482.587,0,0,1,51.708,79.467c17.811,34.1,32.7,71.788,44.25,112,1.559,5.429,3.08,10.985,4.521,16.516Z" transform="translate(-456.926 -996.267)" fill="#fcfdfe"/>
            <path id="Path_1330" data-name="Path 1330" d="M963.59,1166.356c-22.384-34.945-16.124-105.529-16.06-106.236l1.1.1c-.066.7-6.291,70.921,15.888,105.542Z" transform="translate(-854.49 -1046.125)" fill="#fcfdfe"/>
            <path id="Path_1331" data-name="Path 1331" d="M1039.516,1892.2c-12.123-24.89-63.925-38.674-64.446-38.811l.279-1.065c2.151.562,52.818,14.056,65.158,39.4Z" transform="translate(-876.836 -1669.606)" fill="#fcfdfe"/>
            <path id="Path_1332" data-name="Path 1332" d="M1295.394,1823.482c-5.052-17.877-2.418-44.876,7.424-76.032.213-.675.4-1.259.426-1.367l.46.094.615-.166c.053.2.053.2-.445,1.772-9.775,30.943-12.408,57.716-7.414,75.393Z" transform="translate(-1126.965 -1585.937)" fill="#fcfdfe"/>
            <path id="Path_1333" data-name="Path 1333" d="M1231.18,2267.837c-10.58-16.667-39.926-20-40.22-20.02l.117-1.1c.3.034,30.166,3.408,41.034,20.533Z" transform="translate(-1046.746 -1980.009)" fill="#fcfdfe"/>
            <path id="Path_1334" data-name="Path 1334" d="M1396.187,2205.512l-1.1-.1c1.516-16.423,7.788-32.926,19.168-50.46l.924.6C1403.9,2172.93,1397.688,2189.273,1396.187,2205.512Z" transform="translate(-1207.402 -1907.783)" fill="#fcfdfe"/>
            <path id="Path_1335" data-name="Path 1335" d="M634.915,1026.9c-13.479-18.669-23.3-41.37-26.522-48.831-.56-1.293-1-2.313-1.1-2.475l.92-.607c.138.213.426.852,1.193,2.645,3.216,7.433,12.992,30.051,26.409,48.622Z" transform="translate(-587.384 -979.125)" fill="#fcfdfe"/>
            <path id="Path_1336" data-name="Path 1336" d="M635.517,1311.706c-16.806-12.682-60.272-6.455-60.717-6.389l-.16-1.088c1.8-.268,44.367-6.359,61.55,6.6Z" transform="translate(-561.687 -1236.936)" fill="#fcfdfe"/>
          </g>
        </g>
        <path id="Path_1338" data-name="Path 1338" d="M613.111,1691.117l.669.241a126.562,126.562,0,0,0,46.135,7.109l10.293-.984c2.839-1.725,6.159-4.34,6.157-7.526,0-4.888-7.82-7.146-13.675-11.7-14.19-11.038-17.924-34.372-14.738-42.908,4.794-12.855,15.334-43.021-10.157-49.48-21.229-5.386-36.031-4.521-39.047-31.277s-18.64-42.653-42.889-39.643c-25.521,3.167-48.505-29.714-68.829-17.091-35.416,22,1.148,79.227,46.614,93.779s20.886,32.061,20.961,54.1c.1,30.083,40.271,21.323,51.663,32.483A24.626,24.626,0,0,1,613.111,1691.117Z" transform="translate(-472.563 -1273.473)" fill="url(#linear-gradient-2)"/>
        <g id="Group_6" data-name="Group 6" transform="translate(0.271 221.485)" opacity="0.4">
          <g id="Group_5" data-name="Group 5" clip-path="url(#clip-path-2)">
            <path id="Path_1339" data-name="Path 1339" d="M634.16,1728.359c-22.688-85.216-86.617-159-166.84-192.561l.537-1.278C548.47,1568.236,612.714,1642.388,635.5,1728Z" transform="translate(-468.501 -1526.094)" fill="#fcfdfe"/>
            <path id="Path_1340" data-name="Path 1340" d="M1174.524,1990.4l-1.391.085c-2.172-35.333,26.313-64.649,26.6-64.94l.99.978C1200.441,1926.8,1172.39,1955.691,1174.524,1990.4Z" transform="translate(-1023.901 -1833.837)" fill="#fcfdfe"/>
            <path id="Path_1341" data-name="Path 1341" d="M924.361,2256.049c-18.252-29.361-81.81-29.816-82.451-29.816v-1.393c2.643,0,64.968.45,83.629,30.469Z" transform="translate(-763.313 -2069.393)" fill="#fcfdfe"/>
            <path id="Path_1342" data-name="Path 1342" d="M930.362,1642.5c-12.949-25.448,1.542-66.448,1.691-66.874l1.31.47c-.147.407-14.436,40.853-1.759,65.765Z" transform="translate(-828.695 -1558.449)" fill="#fcfdfe"/>
            <path id="Path_1343" data-name="Path 1343" d="M500.93,1676.7c-27.687-14.753-68.629-3.105-69.04-2.982l-.39-1.337c.415-.119,41.9-11.927,70.086,3.1Z" transform="translate(-440.31 -1631.031)" fill="#fcfdfe"/>
          </g>
        </g>
        <path id="Path_1345" data-name="Path 1345" d="M1005.743,2709.695l-259.433,89.483-157.923-27.606a10.278,10.278,0,0,1-8.506-10.123v-50.62a9.6,9.6,0,0,1,9.3-9.6L871.5,2692.32Z" transform="translate(-556.818 -2215.827)" fill="#bfc8d6"/>
        <path id="Path_1346" data-name="Path 1346" d="M625.35,2757.87l150.9,26.737v60.625l-150.9-26.192Z" transform="translate(-592.604 -2267.417)" fill="#d8dee8"/>
        <path id="Path_1347" data-name="Path 1347" d="M1315.12,2854.464v-56.775c0-5.09,4.413-9.465,9.842-9.772l257.546-14.559a8.055,8.055,0,0,1,8.625,8.121v53.031a9.436,9.436,0,0,1-8.625,9.25l-257.546,19.18C1319.533,2863.36,1315.12,2859.554,1315.12,2854.464Z" transform="translate(-1135.47 -2279.595)" fill="#fff"/>
        <path id="Path_1348" data-name="Path 1348" d="M1391.536,2899.257a6.878,6.878,0,0,1-6.568,6.575,5.943,5.943,0,0,1-6.587-5.774,6.878,6.878,0,0,1,6.587-6.574A5.937,5.937,0,0,1,1391.536,2899.257Z" transform="translate(-1185.257 -2374.138)" fill="#bfc8d6"/>
        <path id="Path_1349" data-name="Path 1349" d="M1489.153,2893.437a6.826,6.826,0,0,1-6.5,6.538,5.9,5.9,0,0,1-6.522-5.75,6.817,6.817,0,0,1,6.522-6.541A5.894,5.894,0,0,1,1489.153,2893.437Z" transform="translate(-1262.189 -2369.574)" fill="#bfc8d6"/>
        <path id="Path_1350" data-name="Path 1350" d="M1585.8,2887.706a6.771,6.771,0,0,1-6.438,6.5,5.854,5.854,0,0,1-6.457-5.721,6.773,6.773,0,0,1,6.457-6.5A5.845,5.845,0,0,1,1585.8,2887.706Z" transform="translate(-1338.349 -2365.089)" fill="#bfc8d6"/>
        <path id="Path_1351" data-name="Path 1351" d="M1875.306,2874.3l-181.676,13v-50.454l181.676-10.776Z" transform="translate(-1433.367 -2321.092)" fill="url(#linear-gradient-3)"/>
        <g id="Group_7" data-name="Group 7" transform="translate(272.688 511.489)" opacity="0.3">
          <path id="Path_1352" data-name="Path 1352" d="M1757.539,2940.729l-5.569.394v-40.685l5.569-.338Z" transform="translate(-1751.97 -2890.844)" fill="#fff"/>
          <path id="Path_1353" data-name="Path 1353" d="M1803.94,2937.813l-5.54.392v-40.589l5.54-.336Z" transform="translate(-1788.512 -2888.625)" fill="#fff"/>
          <path id="Path_1354" data-name="Path 1354" d="M1850.114,2934.916l-5.514.39v-40.489l5.514-.336Z" transform="translate(-1824.872 -2886.421)" fill="#fff"/>
          <path id="Path_1355" data-name="Path 1355" d="M1896.066,2932.038l-5.486.387v-40.393l5.486-.332Z" transform="translate(-1861.06 -2884.233)" fill="#fff"/>
          <path id="Path_1356" data-name="Path 1356" d="M1941.8,2929.162l-5.461.385v-40.295l5.461-.332Z" transform="translate(-1897.074 -2882.045)" fill="#fff"/>
          <path id="Path_1357" data-name="Path 1357" d="M1987.315,2926.305l-5.435.384v-40.2l5.435-.33Z" transform="translate(-1932.915 -2879.873)" fill="#fff"/>
          <path id="Path_1358" data-name="Path 1358" d="M2032.609,2923.46l-5.409.384v-40.1l5.409-.33Z" transform="translate(-1968.583 -2877.709)" fill="#fff"/>
          <path id="Path_1359" data-name="Path 1359" d="M2077.694,2920.634l-5.384.381v-40.007l5.384-.328Z" transform="translate(-2004.086 -2875.56)" fill="#fff"/>
          <path id="Path_1360" data-name="Path 1360" d="M2122.559,2917.818l-5.359.379v-39.911l5.359-.326Z" transform="translate(-2039.415 -2873.419)" fill="#fff"/>
          <path id="Path_1361" data-name="Path 1361" d="M2167.213,2915.014l-5.333.377v-39.817l5.333-.324Z" transform="translate(-2074.579 -2871.286)" fill="#fff"/>
          <path id="Path_1362" data-name="Path 1362" d="M2211.657,2912.223l-5.307.375v-39.724l5.307-.324Z" transform="translate(-2109.579 -2869.162)" fill="#fff"/>
          <path id="Path_1363" data-name="Path 1363" d="M2255.894,2909.447l-5.284.375v-39.63l5.284-.322Z" transform="translate(-2144.412 -2867.052)" fill="#fff"/>
          <path id="Path_1364" data-name="Path 1364" d="M2299.918,2906.686l-5.259.37V2867.52l5.259-.319Z" transform="translate(-2179.081 -2864.951)" fill="#fff"/>
          <path id="Path_1365" data-name="Path 1365" d="M2343.743,2903.934l-5.233.368v-39.445l5.233-.317Z" transform="translate(-2213.592 -2862.857)" fill="#fff"/>
          <path id="Path_1366" data-name="Path 1366" d="M2387.36,2901.192l-5.21.369v-39.354l5.21-.317Z" transform="translate(-2247.937 -2860.772)" fill="#fff"/>
          <path id="Path_1367" data-name="Path 1367" d="M2430.774,2898.469l-5.184.369v-39.262l5.184-.315Z" transform="translate(-2282.126 -2858.702)" fill="#fff"/>
          <path id="Path_1368" data-name="Path 1368" d="M2473.98,2895.757l-5.16.366v-39.17l5.16-.313Z" transform="translate(-2316.149 -2856.64)" fill="#fff"/>
        </g>
        <g id="Group_8" data-name="Group 8" transform="translate(272.688 515.163)" opacity="0.69">
          <path id="Path_1369" data-name="Path 1369" d="M1757.539,2963.112l-5.569.394v-34.619l5.569-.347Z" transform="translate(-1751.97 -2916.901)" fill="url(#linear-gradient-4)"/>
          <path id="Path_1370" data-name="Path 1370" d="M1803.94,3072.253l-5.54.392v-4.157l5.54-.388Z" transform="translate(-1788.512 -3026.739)" fill="url(#linear-gradient-5)"/>
          <path id="Path_1371" data-name="Path 1371" d="M1850.114,2997.311l-5.514.39v-23.583l5.514-.358Z" transform="translate(-1824.872 -2952.491)" fill="url(#linear-gradient-6)"/>
          <path id="Path_1372" data-name="Path 1372" d="M1896.066,3043.606l-5.486.387v-10.159l5.486-.375Z" transform="translate(-1861.06 -2999.476)" fill="url(#linear-gradient-7)"/>
          <path id="Path_1373" data-name="Path 1373" d="M1941.8,2982.065l-5.461.385v-25.959l5.461-.352Z" transform="translate(-1897.074 -2938.623)" fill="url(#linear-gradient-8)"/>
          <path id="Path_1374" data-name="Path 1374" d="M1987.315,3008.754l-5.435.383V2991.28l5.435-.36Z" transform="translate(-1932.915 -2965.995)" fill="url(#linear-gradient-9)"/>
          <path id="Path_1375" data-name="Path 1375" d="M2032.609,2957.278l-5.409.384V2926.72l5.409-.34Z" transform="translate(-1968.583 -2915.201)" fill="url(#linear-gradient-10)"/>
          <path id="Path_1376" data-name="Path 1376" d="M2077.694,2942.647l-5.384.382v-34.044l5.384-.334Z" transform="translate(-2004.086 -2901.247)" fill="url(#linear-gradient-11)"/>
          <path id="Path_1377" data-name="Path 1377" d="M2122.559,3002.447l-5.359.379v-16.98l5.359-.355Z" transform="translate(-2039.415 -2961.722)" fill="url(#linear-gradient-12)"/>
          <path id="Path_1378" data-name="Path 1378" d="M2167.213,2925.073l-5.333.377v-37.092l5.333-.328Z" transform="translate(-2074.579 -2885.019)" fill="url(#linear-gradient-13)"/>
          <path id="Path_1379" data-name="Path 1379" d="M2211.657,2942.523l-5.307.375v-31.517l5.307-.332Z" transform="translate(-2109.579 -2903.136)" fill="url(#linear-gradient-14)"/>
          <path id="Path_1380" data-name="Path 1380" d="M2255.894,3024.589l-5.284.375v-8.432l5.284-.362Z" transform="translate(-2144.412 -2985.868)" fill="url(#linear-gradient-15)"/>
          <path id="Path_1381" data-name="Path 1381" d="M2299.918,2979.643l-5.259.37v-19.768l5.259-.345Z" transform="translate(-2179.081 -2941.582)" fill="url(#linear-gradient-16)"/>
          <path id="Path_1382" data-name="Path 1382" d="M2343.743,2944.608l-5.233.368v-28.424l5.233-.332Z" transform="translate(-2213.592 -2907.205)" fill="url(#linear-gradient-17)"/>
          <path id="Path_1383" data-name="Path 1383" d="M2387.36,2970.1l-5.21.368v-20.682l5.21-.341Z" transform="translate(-2247.937 -2933.358)" fill="url(#linear-gradient-18)"/>
          <path id="Path_1384" data-name="Path 1384" d="M2430.774,2925.251l-5.184.368v-32.006l5.184-.323Z" transform="translate(-2282.126 -2889.158)" fill="url(#linear-gradient-19)"/>
          <path id="Path_1385" data-name="Path 1385" d="M2473.98,2909.333l-5.16.366v-35.49l5.16-.319Z" transform="translate(-2316.149 -2873.89)" fill="url(#linear-gradient-20)"/>
        </g>
        <path id="Path_1386" data-name="Path 1386" d="M587.922,2441.476,741.831,2466.8l263.953-82.981a.7.7,0,0,0-.142-1.369c-22.788-1.977-148.512-12.881-149.208-12.87l-266.406,8.986a10.278,10.278,0,0,0-10.146,10.271V2432A9.6,9.6,0,0,0,587.922,2441.476Z" transform="translate(-556.818 -1961.823)" fill="#bfc8d6"/>
        <path id="Path_1387" data-name="Path 1387" d="M625.35,2446.48,780.287,2460.7v62.674S625.35,2501.2,625.35,2498.167Z" transform="translate(-592.604 -2022.345)" fill="#d8dee8"/>
        <path id="Path_1388" data-name="Path 1388" d="M1315.12,2507.6v-56.777c0-5.09,4.413-9.371,9.842-9.584l257.546-9.778a8.23,8.23,0,0,1,8.625,8.281v53.031a9.225,9.225,0,0,1-8.625,9.092l-257.546,14.4C1319.533,2516.569,1315.12,2512.691,1315.12,2507.6Z" transform="translate(-1135.47 -2010.52)" fill="#fff"/>
        <path id="Path_1389" data-name="Path 1389" d="M1391.536,2535.913a6.719,6.719,0,0,1-6.568,6.451,6.074,6.074,0,0,1-6.587-5.9,6.719,6.719,0,0,1,6.587-6.451A6.068,6.068,0,0,1,1391.536,2535.913Z" transform="translate(-1185.257 -2088.087)" fill="#bfc8d6"/>
        <path id="Path_1390" data-name="Path 1390" d="M1489.153,2531.916a6.671,6.671,0,0,1-6.5,6.419,6.028,6.028,0,0,1-6.522-5.867,6.671,6.671,0,0,1,6.522-6.419A6.02,6.02,0,0,1,1489.153,2531.916Z" transform="translate(-1262.189 -2084.962)" fill="#bfc8d6"/>
        <path id="Path_1391" data-name="Path 1391" d="M1585.8,2527.958a6.625,6.625,0,0,1-6.438,6.389,5.979,5.979,0,0,1-6.457-5.84,6.626,6.626,0,0,1,6.457-6.389A5.971,5.971,0,0,1,1585.8,2527.958Z" transform="translate(-1338.349 -2081.869)" fill="#bfc8d6"/>
        <path id="Path_1392" data-name="Path 1392" d="M1875.306,2531.916l-181.676,9.633v-50.456l181.676-7.4Z" transform="translate(-1433.367 -2051.63)" fill="url(#linear-gradient-21)"/>
        <g id="Group_9" data-name="Group 9" transform="translate(272.688 438.358)" opacity="0.3">
          <path id="Path_1393" data-name="Path 1393" d="M1757.539,2584.081l-5.569.29v-40.685l5.569-.236Z" transform="translate(-1751.97 -2537.02)" fill="#fff"/>
          <path id="Path_1394" data-name="Path 1394" d="M1803.94,2582.031l-5.54.29v-40.587l5.54-.234Z" transform="translate(-1788.512 -2535.485)" fill="#fff"/>
          <path id="Path_1395" data-name="Path 1395" d="M1850.114,2579.985l-5.514.288v-40.491l5.514-.232Z" transform="translate(-1824.872 -2533.95)" fill="#fff"/>
          <path id="Path_1396" data-name="Path 1396" d="M1896.066,2577.949l-5.486.286v-40.393l5.486-.232Z" transform="translate(-1861.06 -2532.424)" fill="#fff"/>
          <path id="Path_1397" data-name="Path 1397" d="M1941.8,2575.931l-5.461.283V2535.92l5.461-.23Z" transform="translate(-1897.074 -2530.913)" fill="#fff"/>
          <path id="Path_1398" data-name="Path 1398" d="M1987.315,2573.916l-5.435.283V2534l5.435-.23Z" transform="translate(-1932.915 -2529.402)" fill="#fff"/>
          <path id="Path_1399" data-name="Path 1399" d="M2032.609,2571.91l-5.409.282v-40.1l5.409-.228Z" transform="translate(-1968.583 -2527.899)" fill="#fff"/>
          <path id="Path_1400" data-name="Path 1400" d="M2077.694,2569.916l-5.384.279v-40.007l5.384-.228Z" transform="translate(-2004.086 -2526.403)" fill="#fff"/>
          <path id="Path_1401" data-name="Path 1401" d="M2122.559,2567.93l-5.359.279V2528.3l5.359-.226Z" transform="translate(-2039.415 -2524.916)" fill="#fff"/>
          <path id="Path_1402" data-name="Path 1402" d="M2167.213,2565.957l-5.333.277v-39.818l5.333-.226Z" transform="translate(-2074.579 -2523.436)" fill="#fff"/>
          <path id="Path_1403" data-name="Path 1403" d="M2211.657,2563.991l-5.307.277v-39.724l5.307-.224Z" transform="translate(-2109.579 -2521.965)" fill="#fff"/>
          <path id="Path_1404" data-name="Path 1404" d="M2255.894,2562.029l-5.284.275v-39.631l5.284-.224Z" transform="translate(-2144.412 -2520.492)" fill="#fff"/>
          <path id="Path_1405" data-name="Path 1405" d="M2299.918,2560.086l-5.259.272v-39.537l5.259-.221Z" transform="translate(-2179.081 -2519.037)" fill="#fff"/>
          <path id="Path_1406" data-name="Path 1406" d="M2343.743,2558.144l-5.233.273v-39.446l5.233-.221Z" transform="translate(-2213.592 -2517.581)" fill="#fff"/>
          <path id="Path_1407" data-name="Path 1407" d="M2387.36,2556.212l-5.21.271v-39.351l5.21-.222Z" transform="translate(-2247.937 -2516.132)" fill="#fff"/>
          <path id="Path_1408" data-name="Path 1408" d="M2430.774,2554.291l-5.184.271V2515.3l5.184-.219Z" transform="translate(-2282.126 -2514.692)" fill="#fff"/>
          <path id="Path_1409" data-name="Path 1409" d="M2473.98,2552.379l-5.16.269v-39.17l5.16-.218Z" transform="translate(-2316.149 -2513.26)" fill="#fff"/>
        </g>
        <g id="Group_10" data-name="Group 10" transform="translate(272.688 442.032)" opacity="0.69">
          <path id="Path_1410" data-name="Path 1410" d="M1757.539,2606.464l-5.569.29v-34.619l5.569-.245Z" transform="translate(-1751.97 -2563.077)" fill="url(#linear-gradient-22)"/>
          <path id="Path_1411" data-name="Path 1411" d="M1803.94,2716.471l-5.54.29V2712.6l5.54-.283Z" transform="translate(-1788.512 -2673.599)" fill="url(#linear-gradient-23)"/>
          <path id="Path_1412" data-name="Path 1412" d="M1850.114,2642.381l-5.514.287v-23.583l5.514-.256Z" transform="translate(-1824.872 -2600.02)" fill="url(#linear-gradient-24)"/>
          <path id="Path_1413" data-name="Path 1413" d="M1896.066,2689.526l-5.486.286v-10.159l5.486-.272Z" transform="translate(-1861.06 -2647.674)" fill="url(#linear-gradient-25)"/>
          <path id="Path_1414" data-name="Path 1414" d="M1941.8,2628.835l-5.461.283v-25.96l5.461-.249Z" transform="translate(-1897.074 -2587.491)" fill="url(#linear-gradient-26)"/>
          <path id="Path_1415" data-name="Path 1415" d="M1987.315,2656.364l-5.435.283v-17.86l5.435-.257Z" transform="translate(-1932.915 -2615.524)" fill="url(#linear-gradient-27)"/>
          <path id="Path_1416" data-name="Path 1416" d="M2032.609,2605.72l-5.409.284v-30.943l5.409-.24Z" transform="translate(-1968.583 -2565.383)" fill="url(#linear-gradient-28)"/>
          <path id="Path_1417" data-name="Path 1417" d="M2077.694,2591.929l-5.384.279v-34.042l5.384-.237Z" transform="translate(-2004.086 -2552.09)" fill="url(#linear-gradient-29)"/>
          <path id="Path_1418" data-name="Path 1418" d="M2122.559,2652.559l-5.359.28v-16.98l5.359-.258Z" transform="translate(-2039.415 -2613.219)" fill="url(#linear-gradient-30)"/>
          <path id="Path_1419" data-name="Path 1419" d="M2167.213,2576.015l-5.333.277V2539.2l5.333-.23Z" transform="translate(-2074.579 -2537.168)" fill="url(#linear-gradient-31)"/>
          <path id="Path_1420" data-name="Path 1420" d="M2211.657,2594.283l-5.307.277v-31.516l5.307-.234Z" transform="translate(-2109.579 -2555.931)" fill="url(#linear-gradient-32)"/>
          <path id="Path_1421" data-name="Path 1421" d="M2255.894,2677.179l-5.284.275v-8.43l5.284-.264Z" transform="translate(-2144.412 -2639.316)" fill="url(#linear-gradient-33)"/>
          <path id="Path_1422" data-name="Path 1422" d="M2299.918,2633.043l-5.259.273v-19.768l5.259-.247Z" transform="translate(-2179.081 -2595.667)" fill="url(#linear-gradient-34)"/>
          <path id="Path_1423" data-name="Path 1423" d="M2343.743,2598.817l-5.233.273v-28.426l5.233-.234Z" transform="translate(-2213.592 -2561.928)" fill="url(#linear-gradient-35)"/>
          <path id="Path_1424" data-name="Path 1424" d="M2387.36,2625.124l-5.21.271v-20.68l5.21-.245Z" transform="translate(-2247.937 -2588.718)" fill="url(#linear-gradient-36)"/>
          <path id="Path_1425" data-name="Path 1425" d="M2430.774,2581.073l-5.184.271v-32.006l5.184-.228Z" transform="translate(-2282.126 -2545.149)" fill="url(#linear-gradient-37)"/>
          <path id="Path_1426" data-name="Path 1426" d="M2473.98,2565.955l-5.16.269v-35.49l5.16-.223Z" transform="translate(-2316.149 -2530.51)" fill="url(#linear-gradient-38)"/>
        </g>
        <path id="Path_1427" data-name="Path 1427" d="M1821.927,2123.764c-7.987-3.346-11.837-6.294-14.968-14.195-5.407-13.63-8.053-28.639-12.442-42.719-26.324,2.13-52.66,4.311-79.014,6.73-1.587,15.092-5.974,30.349-6.9,45.364-.52,8.412,3.246,11.927,10.847,14.947,10.01,3.98,21.655,6.949,32.206,9.667,7.85,2.021,11.652,2.786,20.471,2.091,23.453-1.851,49.184-3.282,73.023-4.9,2.788-.187,3.363-1.646,4.189-3.716s1.039-3.5-.426-5.222C1840.43,2128.771,1829.914,2127.11,1821.927,2123.764Z" transform="translate(-1445.116 -1723.567)" fill="#97a6b7"/>
        <path id="Path_1428" data-name="Path 1428" d="M1831.639,2113.647c-7.691-3.454-11.848-6.117-14.934-13.931-5.324-13.488-8.093-28.368-12.4-42.316-25.691,2.111-51.38,4.451-77.118,6.615-1.676,14.81-5.635,30.091-6.969,44.725-.745,8.2,1.634,11.692,9.135,14.851,9.872,4.16,21.632,6.836,32.121,9.518,7.8,1.993,11.86,2.743,20.605,2,23.255-1.964,49.044-3.363,72.838-4.854,2.783-.174,3.72-1.354,4-3.8s-.769-3.646-3.207-4.686C1848.453,2118.652,1838.663,2116.8,1831.639,2113.647Z" transform="translate(-1454.191 -1716.129)" fill="url(#linear-gradient-39)"/>
        <path id="Path_1429" data-name="Path 1429" d="M1480.621,1082.491V878.128a8.056,8.056,0,0,0-7.686-7.927l-351.1-14.114c-5.344-.213-9.727,3.476-9.727,8.2v225.851Z" transform="translate(-975.696 -770.659)" fill="url(#linear-gradient-40)"/>
        <path id="Path_1430" data-name="Path 1430" d="M1163.1,1042.23v176.422c0,4.4,4.07,7.891,9.03,7.75l333.216-9.478a7.446,7.446,0,0,0,7.222-7.345v-157.35Z" transform="translate(-1015.827 -917.165)" fill="url(#linear-gradient-41)"/>
        <path id="Path_1431" data-name="Path 1431" d="M1512.571,949.623V931.567a7.379,7.379,0,0,0-7.075-7.258l-333.549-12.444c-4.86-.181-8.847,3.195-8.847,7.512v20.247Z" transform="translate(-1015.827 -814.558)" fill="#a2a7ae"/>
        <path id="Path_1432" data-name="Path 1432" d="M1254.725,967.192a2.822,2.822,0,0,1-3.088,2.647,3.058,3.058,0,0,1-3.1-2.85,2.823,2.823,0,0,1,3.1-2.647A3.051,3.051,0,0,1,1254.725,967.192Z" transform="translate(-1083.07 -855.864)" fill="url(#linear-gradient-42)"/>
        <path id="Path_1433" data-name="Path 1433" d="M1317.492,969.307a2.8,2.8,0,0,1-3.052,2.632,3.029,3.029,0,0,1-3.06-2.835,2.8,2.8,0,0,1,3.06-2.632A3.025,3.025,0,0,1,1317.492,969.307Z" transform="translate(-1132.527 -857.54)" fill="url(#linear-gradient-43)"/>
        <path id="Path_1434" data-name="Path 1434" d="M1379.532,971.4a2.777,2.777,0,0,1-3.016,2.62,3,3,0,0,1-3.026-2.818,2.772,2.772,0,0,1,3.026-2.617A3,3,0,0,1,1379.532,971.4Z" transform="translate(-1181.409 -859.201)" fill="url(#linear-gradient-41)"/>
        <path id="Path_1435" data-name="Path 1435" d="M1112.11,1921.966v45.106c0,4.728,4.383,8.41,9.727,8.185l351.1-14.844a8.076,8.076,0,0,0,7.686-7.944V1913Z" transform="translate(-975.696 -1602.482)" fill="url(#linear-gradient-45)"/>
        <path id="Path_1436" data-name="Path 1436" d="M1205.09,949.21l.283,71.758a4.037,4.037,0,0,0,3.88,4.242l122.512-1.946c1.834-.03,3.316-1.836,3.316-4.034V952.88Z" transform="translate(-1048.874 -843.956)" fill="url(#linear-gradient-46)"/>
        <path id="Path_1437" data-name="Path 1437" d="M1331.694,911.049l-122.829-4.117a3.941,3.941,0,0,0-3.855,4.2l.028,7.369,129.981,3.476v-6.815C1335.018,912.951,1333.532,911.111,1331.694,911.049Z" transform="translate(-1048.811 -810.681)" fill="url(#linear-gradient-47)"/>
        <path id="Path_1438" data-name="Path 1438" d="M1352.9,1028.1l6.875-27.457c10.457,4.063,17.973,15.292,18.056,28.381Z" transform="translate(-1165.204 -884.433)" fill="#fff"/>
        <g id="Group_11" data-name="Group 11" transform="translate(166.356 121.94)" opacity="0.74">
          <path id="Path_1439" data-name="Path 1439" d="M1373.984,1139.359a23.486,23.486,0,0,1-6.939,15.581l-10.926-16.25Z" transform="translate(-1334.094 -1115.021)" fill="#fff"/>
          <path id="Path_1440" data-name="Path 1440" d="M1295.631,1048.325c-4.259-4.621-9.4-10.223-13.511-14.734a18.549,18.549,0,0,1,13.867-6.034,17.909,17.909,0,0,1,4.685.72Z" transform="translate(-1275.854 -1027.555)" fill="#fff"/>
          <path id="Path_1441" data-name="Path 1441" d="M1271.6,1077.5l-15.4,12.753a24.789,24.789,0,0,1-3.5-12.727,24.09,24.09,0,0,1,5.062-15.091l3.8,4.142C1265.755,1071.141,1269.944,1075.7,1271.6,1077.5Z" transform="translate(-1252.699 -1055.003)" fill="#fff"/>
          <path id="Path_1442" data-name="Path 1442" d="M1288.807,1142.74l-.234,20.659a19.45,19.45,0,0,1-14.583-8.379Z" transform="translate(-1269.456 -1118.208)" fill="#fff"/>
          <path id="Path_1443" data-name="Path 1443" d="M1350.716,1146.88l10.557,15.681a18.248,18.248,0,0,1-10.783,4.119Z" transform="translate(-1329.663 -1121.467)" fill="#fff"/>
        </g>
        <path id="Path_1444" data-name="Path 1444" d="M1547.615,1038.24l-61.49-.9-.015-6.917,61.5,1.158Z" transform="translate(-1270.044 -907.87)" fill="#fff" opacity="0.74"/>
        <path id="Path_1445" data-name="Path 1445" d="M1547.722,1096.542l-61.467-.441-.015-6.911,61.479.7Z" transform="translate(-1270.146 -954.124)" fill="#fff" opacity="0.74"/>
        <path id="Path_1446" data-name="Path 1446" d="M1547.818,1154.8l-61.443.021-.015-6.907,61.456.234Z" transform="translate(-1270.24 -1000.338)" fill="#fff" opacity="0.74"/>
        <path id="Path_1447" data-name="Path 1447" d="M1547.923,1212.167l-61.417.484-.015-6.9,61.433-.228Z" transform="translate(-1270.343 -1045.678)" fill="#fff" opacity="0.74"/>
        <path id="Path_1448" data-name="Path 1448" d="M1234.032,927.4a1.746,1.746,0,0,1-1.7,1.864,1.893,1.893,0,0,1-1.719-1.966,1.749,1.749,0,0,1,1.7-1.864A1.9,1.9,0,0,1,1234.032,927.4Z" transform="translate(-1068.959 -825.245)" fill="#fff"/>
        <path id="Path_1449" data-name="Path 1449" d="M1219.4,1445.519V1527.3a4.543,4.543,0,0,0,4.622,4.722l151.038-6.332a4.7,4.7,0,0,0,4.213-4.862V1442.88Z" transform="translate(-1060.136 -1232.487)" fill="url(#linear-gradient-48)"/>
        <path id="Path_1450" data-name="Path 1450" d="M1375.059,1396.579l-151.038,2.057a4.851,4.851,0,0,0-4.621,4.977V1412l159.872-2.794v-7.989A4.4,4.4,0,0,0,1375.059,1396.579Z" transform="translate(-1060.136 -1196.046)" fill="url(#linear-gradient-49)"/>
        <path id="Path_1451" data-name="Path 1451" d="M1428.779,1569.084l-125.679,4.728v-55.8l125.679-2.673Z" transform="translate(-1126.01 -1289.514)" fill="#fff" opacity="0.74"/>
        <path id="Path_1452" data-name="Path 1452" d="M1428.779,1614.976,1303.1,1619.7v-35.871c4.089,24.254,8.442,29.508,11.726,29.653,4.619.213,7.107-9.722,14.1-10.223,6.939-.488,9.279,8.983,14.482,8.474,9.884-.969,12.566-36.406,20.586-36.845,6.368-.358,10.677,21.723,16.288,20.658,4.1-.769,5.094-13.19,8.2-13.149,2.818.036,2.937,10.261,6.645,11.1,5.435,1.227,10.721-19.513,18.214-19.845,4.151-.183,9.319,5.878,15.445,26.835Z" transform="translate(-1126.01 -1335.407)" fill="#fff"/>
        <path id="Path_1453" data-name="Path 1453" d="M1254.714,1427.738a2.155,2.155,0,0,1-2.047,2.211,2.076,2.076,0,0,1-2.047-2.147,2.157,2.157,0,0,1,2.047-2.213A2.075,2.075,0,0,1,1254.714,1427.738Z" transform="translate(-1084.707 -1218.878)" fill="#fff"/>
        <path id="Path_1454" data-name="Path 1454" d="M1849.289,629.4V764.1a7.961,7.961,0,0,0,7.987,8.027l256.123-2.2a7.378,7.378,0,0,0,7.009-7.631V636.356Z" transform="translate(-1555.874 -592.257)" fill="url(#linear-gradient-50)"/>
        <path id="Path_1455" data-name="Path 1455" d="M2113.4,557.819,1857.276,550.2a7.762,7.762,0,0,0-7.986,7.859v13.8l271.117,6.645V565.6C2120.409,561.42,2117.274,557.938,2113.4,557.819Z" transform="translate(-1555.876 -529.919)" fill="url(#linear-gradient-51)"/>
        <path id="Path_1456" data-name="Path 1456" d="M1909.135,588.54a3.447,3.447,0,0,1-3.531,3.491,3.68,3.68,0,0,1-3.535-3.684,3.446,3.446,0,0,1,3.535-3.491A3.682,3.682,0,0,1,1909.135,588.54Z" transform="translate(-1597.414 -557.199)" fill="#fff"/>
        <path id="Path_1457" data-name="Path 1457" d="M2032.9,845.5l-20.02.087V745.34l20.02.4Z" transform="translate(-1684.625 -683.505)" fill="#fff" opacity="0.74"/>
        <path id="Path_1458" data-name="Path 1458" d="M2032.9,1040.088l-20.02.087v-47.6l20.02.143Z" transform="translate(-1684.625 -878.089)" fill="#fff"/>
        <path id="Path_1459" data-name="Path 1459" d="M2163.171,847.433l-19.751.085V747.94l19.751.394Z" transform="translate(-1787.363 -685.551)" fill="#fff" opacity="0.74"/>
        <path id="Path_1460" data-name="Path 1460" d="M2163.171,1128.055l-19.751.085V1104.5l19.751.03Z" transform="translate(-1787.363 -966.173)" fill="#fff"/>
        <path id="Path_1461" data-name="Path 1461" d="M2291.7,849.329l-19.491.085V750.5l19.491.39Z" transform="translate(-1888.724 -687.566)" fill="#fff" opacity="0.74"/>
        <path id="Path_1462" data-name="Path 1462" d="M2291.7,1169.207l-19.491.085v-12.327l19.491-.026Z" transform="translate(-1888.724 -1007.445)" fill="#fff"/>
        <path id="Path_1463" data-name="Path 1463" d="M2418.534,851.205l-19.234.083V753.03l19.234.383Z" transform="translate(-1988.747 -689.557)" fill="#fff" opacity="0.74"/>
        <path id="Path_1464" data-name="Path 1464" d="M2418.534,929.86l-19.234.083V852.97l19.234.281Z" transform="translate(-1988.747 -768.213)" fill="#fff"/>
        <path id="Path_1465" data-name="Path 1465" d="M2543.69,853.058l-18.98.083V755.53l18.98.377Z" transform="translate(-2087.448 -691.525)" fill="#fff" opacity="0.74"/>
        <path id="Path_1466" data-name="Path 1466" d="M2543.69,963.3l-18.98.083V895.61l18.98.236Z" transform="translate(-2087.448 -801.771)" fill="#fff"/>
        <path id="Path_1467" data-name="Path 1467" d="M2667.213,854.881l-18.733.081V757.99l18.733.373Z" transform="translate(-2184.858 -693.461)" fill="#fff" opacity="0.74"/>
        <path id="Path_1468" data-name="Path 1468" d="M2667.213,906.99l-18.733.081V824.2l18.733.307Z" transform="translate(-2184.858 -745.57)" fill="#fff"/>
        <path id="Path_1469" data-name="Path 1469" d="M2789.133,856.68l-18.492.081V760.42l18.492.369Z" transform="translate(-2281.001 -695.373)" fill="#fff" opacity="0.74"/>
        <path id="Path_1470" data-name="Path 1470" d="M2789.133,994.016l-18.492.081V934.92l18.492.2Z" transform="translate(-2281.001 -832.709)" fill="#fff"/>
        <path id="Path_1471" data-name="Path 1471" d="M2909.474,858.469l-18.254.079V762.83l18.254.362Z" transform="translate(-2375.9 -697.27)" fill="#fff" opacity="0.74"/>
        <path id="Path_1472" data-name="Path 1472" d="M2909.474,1089.374l-18.254.079V1056.22l18.254.074Z" transform="translate(-2375.9 -928.175)" fill="#fff"/>
        <path id="Path_1473" data-name="Path 1473" d="M2022.18,1384.985v68.64a3.74,3.74,0,0,0,3.671,3.983l120.9-4.739a3.9,3.9,0,0,0,3.4-4.1v-65.93Z" transform="translate(-1691.944 -1185.234)" fill="url(#linear-gradient-52)"/>
        <path id="Path_1474" data-name="Path 1474" d="M2146.755,1343.769l-120.9,1.7a3.988,3.988,0,0,0-3.672,4.179v7.028l127.971-2.241v-6.756A3.648,3.648,0,0,0,2146.755,1343.769Z" transform="translate(-1691.944 -1154.483)" fill="url(#linear-gradient-53)"/>
        <path id="Path_1475" data-name="Path 1475" d="M2050.236,1369.815a1.771,1.771,0,0,1-1.626,1.855,1.7,1.7,0,0,1-1.629-1.8,1.774,1.774,0,0,1,1.629-1.857A1.7,1.7,0,0,1,2050.236,1369.815Z" transform="translate(-1711.463 -1173.561)" fill="#fff"/>
        <path id="Path_1476" data-name="Path 1476" d="M2076.807,1487.992a7.746,7.746,0,0,1,5.676-4.534l.172-11.748c-7,.458-12.991,5.482-15.656,12.451Z" transform="translate(-1727.219 -1255.176)" fill="#fff" opacity="0.74"/>
        <path id="Path_1477" data-name="Path 1477" d="M2149,1483.421c3.327.479,5.923,3.491,6.231,7.312l10.293.188c-.132-10.4-7.275-18.71-16.354-19.24Z" transform="translate(-1791.755 -1255.153)" fill="#fff"/>
        <path id="Path_1478" data-name="Path 1478" d="M2119.64,1571.58c-.6,3.931-3.621,7-7.26,7.113a6.521,6.521,0,0,1-3.014-.639l-5.475,10.187a15.733,15.733,0,0,0,8.489,2.144c9.19-.319,16.7-8.491,17.553-18.633Z" transform="translate(-1756.252 -1333.777)" fill="#fff" opacity="0.74"/>
        <path id="Path_1479" data-name="Path 1479" d="M2067.714,1562.362l5.482-10.189a8.555,8.555,0,0,1-2.711-6.389,9.5,9.5,0,0,1,.179-1.84l-9.812-3.833a22.67,22.67,0,0,0-.792,5.963A20.2,20.2,0,0,0,2067.714,1562.362Z" transform="translate(-1721.757 -1309.009)" fill="#fff" opacity="0.74"/>
        <path id="Path_1480" data-name="Path 1480" d="M2257.509,1483.862a7.551,7.551,0,0,1,5.537-4.472l.168-11.609c-6.834.452-12.68,5.412-15.285,12.3Z" transform="translate(-1869.615 -1252.083)" fill="#fff"/>
        <path id="Path_1481" data-name="Path 1481" d="M2328,1479.321c3.25.477,5.782,3.452,6.087,7.228l10.05.19c-.128-10.274-7.1-18.493-15.974-19.019Z" transform="translate(-1932.632 -1252.036)" fill="#fff" opacity="0.74"/>
        <path id="Path_1482" data-name="Path 1482" d="M2299.346,1566.45c-.59,3.885-3.535,6.915-7.088,7.028a6.317,6.317,0,0,1-2.943-.624l-5.345,10.063a15.2,15.2,0,0,0,8.289,2.13c8.973-.309,16.31-8.383,17.14-18.4Z" transform="translate(-1897.979 -1329.739)" fill="#fff" opacity="0.74"/>
        <path id="Path_1483" data-name="Path 1483" d="M2248.615,1557.307l5.352-10.067a8.5,8.5,0,0,1-2.648-6.317,9.674,9.674,0,0,1,.175-1.819l-9.583-3.785a22.69,22.69,0,0,0-.771,5.891A20.128,20.128,0,0,0,2248.615,1557.307Z" transform="translate(-1864.271 -1305.239)" fill="#fff" opacity="0.74"/>
        <path id="Path_1484" data-name="Path 1484" d="M2433.992,1479.779a7.415,7.415,0,0,1,5.411-4.426l.164-11.473c-6.675.445-12.384,5.346-14.927,12.14Z" transform="translate(-2008.69 -1249.014)" fill="#fff" opacity="0.74"/>
        <path id="Path_1485" data-name="Path 1485" d="M2502.78,1475.317c3.173.47,5.648,3.407,5.944,7.145l9.816.189c-.124-10.152-6.939-18.277-15.6-18.8Z" transform="translate(-2070.188 -1248.99)" fill="#fff" opacity="0.74"/>
        <path id="Path_1486" data-name="Path 1486" d="M2474.829,1561.43c-.577,3.833-3.452,6.836-6.924,6.943a6.112,6.112,0,0,1-2.874-.618l-5.222,9.944a14.75,14.75,0,0,0,8.093,2.1c8.766-.3,15.93-8.278,16.742-18.184Z" transform="translate(-2036.37 -1325.788)" fill="#fff"/>
        <path id="Path_1487" data-name="Path 1487" d="M2425.3,1552.372l5.227-9.948a8.443,8.443,0,0,1-2.586-6.244,9.55,9.55,0,0,1,.17-1.8l-9.356-3.742a22.721,22.721,0,0,0-.754,5.827A19.972,19.972,0,0,0,2425.3,1552.372Z" transform="translate(-2003.464 -1301.556)" fill="#fff" opacity="0.74"/>
        <path id="Path_1488" data-name="Path 1488" d="M2829.44,1928.684l.958-4.24a7.8,7.8,0,0,1,5.685-4.5c4.406-.958,4.548,1.446,4.548,1.446l-2.826,1.1a5.828,5.828,0,0,0-2.888,3.527,15.568,15.568,0,0,1-3.28,4.344Z" transform="translate(-2327.278 -1607.772)" fill="url(#linear-gradient-54)"/>
        <path id="Path_1489" data-name="Path 1489" d="M3096.65,3137s2.73,6.866,2.013,9.912a30.56,30.56,0,0,0,4.828-.426,33.187,33.187,0,0,1-1.408-4.686,45.969,45.969,0,0,1-.287-5.488Z" transform="translate(-2537.579 -2565.258)" fill="url(#linear-gradient-55)"/>
        <path id="Path_1490" data-name="Path 1490" d="M2828.87,3223.806a2.04,2.04,0,0,1,.492,1.2,1.931,1.931,0,0,1-.147.805c-.443,1.167-1.141,1.322-1.894,2.556-.458.756-.372.984-.792,1.327a2.763,2.763,0,0,1-1.808.482,31.988,31.988,0,0,1-4.181-.235q1.4-1.8,2.982-3.661.692-.812,1.386-1.585l2.745-.926Z" transform="translate(-2320.274 -2634.092)" fill="#26264f"/>
        <path id="Path_1491" data-name="Path 1491" d="M2829.656,3161.37s-1.569,8.187.426,10.478c1.7,2.292-.822.656-.822.656l-3.011,2.63-1.808,3.122s1.666-8.012,1.22-11.192-.664-5.324-.664-5.324Z" transform="translate(-2323.343 -2584.981)" fill="url(#linear-gradient-56)"/>
        <path id="Path_1492" data-name="Path 1492" d="M2746.719,2426.583a200.241,200.241,0,0,0-6.719,30.756c-5.265,38.286,5.923,39.509,3.833,81.934-.667,13.543,11.733,44.771,12.825,45.462a13.353,13.353,0,0,0,1.714.066,17.142,17.142,0,0,0,4.36-.741c1.964-.339,9.045-19.521,7.405-30.924-1.162-8.072-.826-16.736-.153-34.059.111-2.807,7.292-54.615,7.292-54.615,2.185,19.168,4.7,35.471,6.875,48.1,7,40.587,29.752,65.153,30.94,65.547a4.8,4.8,0,0,0,4.115-.281,2.839,2.839,0,0,0,1.042-1.172c.609-.477-.179-40.523-7.12-70.661-10.073-43.743-5.688-53.978-8.879-73.517C2801.493,2415.581,2746.719,2426.583,2746.719,2426.583Z" transform="translate(-2255.765 -2003.915)" fill="url(#linear-gradient-57)"/>
        <path id="Path_1493" data-name="Path 1493" d="M3100.411,3198.31s-.681,0-.624.88-.306,3.9,3.152,4.046,3.993-.245,4.106-.245a28.383,28.383,0,0,0-.907-2.89l-1.105-1.418-2.982-.311Z" transform="translate(-2540.045 -2614.054)" fill="#26264f"/>
        <path id="Path_1494" data-name="Path 1494" d="M3108.526,3182.542a10.935,10.935,0,0,0-.893-2.8c-.612-1.374-.109-1.889-.694-3.139a3.694,3.694,0,0,0-.824-1.25,3.574,3.574,0,0,0-2.443-.931,2.512,2.512,0,0,0-1.15.271,2.681,2.681,0,0,0-1.035,1.092,12.174,12.174,0,0,0-.833,2.471,6.049,6.049,0,0,0-.213.841,6.184,6.184,0,0,0-.092.754c.907,0,4.4.143,5.133.679a2.89,2.89,0,0,1,1.105,2.353c0,.907.453,1.331.907,1.3A1.487,1.487,0,0,0,3108.526,3182.542Z" transform="translate(-2540.49 -2595.251)" fill="#444b8c"/>
        <path id="Path_1495" data-name="Path 1495" d="M2824.858,3205.169c.743,0,1.289.6,1.7,2.026s2.383,2.683.081,2.383-3.972,2.956-4.794,4.161-3.027,2.275-2.982,1.1,1.027-1.727,1.3-2.932S2823.154,3205.133,2824.858,3205.169Z" transform="translate(-2318.956 -2619.452)" fill="#444b8c"/>
        <path id="Path_1496" data-name="Path 1496" d="M2800.044,2065.451c-6.687-.2-19.641-2.381-28.113,5.238-.146.132-.832.884-1.687,1.885a55.458,55.458,0,0,0-5.978,8.576,57.336,57.336,0,0,0-5.024,12.429,106.708,106.708,0,0,0-3.963,21.694c-1.546,20.356-.013,29.746,1.379,36.133,6.046,3.1,21.63,8.664,40.2,5.9a62.684,62.684,0,0,0,20.039-6.6c-4.817-14.587-1.039-22.392.746-29.586,3.52-14.206,4.317-19.781,14.269-40.21,2.745-5.631-3.77-2.477-7.944-7.42C2817.563,2065.9,2806.037,2065.628,2800.044,2065.451Z" transform="translate(-2268.402 -1722.121)" fill="url(#linear-gradient-58)"/>
        <path id="Path_1497" data-name="Path 1497" d="M2932.5,1988.479c.524-4.046,3.714-6.621,4.411-7.175,2.914-2.317,3.508-2.556,4.509-2.741l1.367-.213h.149a13.7,13.7,0,0,1,3.636,1.291c1.393.98.366,7.919-3.857,16.548l-.5,2.192c3.68.639,4.594,1.312,4.621,1.842.064,1.147-3.968,2.613-7.7,2.709-4.685.119-9.658-1.9-9.562-3.408.039-.609.922-1.361,4.323-2.1l1.6-2.243C2935.01,1994.619,2932.117,1991.452,2932.5,1988.479Z" transform="translate(-2406.085 -1653.915)" fill="url(#linear-gradient-59)"/>
        <path id="Path_1498" data-name="Path 1498" d="M2966.456,1961.073a6.348,6.348,0,0,0-1.4,5.729c.26,1.065.6,1.188.547,1.894-.134,1.979-3.737,2.841-3.537,3.834.143.713,2.019.453,2.343,1.345.354.98-1.7,1.823-2.592,4.285-.138.384-.975,2.716.1,4.085,1,1.278,3.248.977,5.78.639a20.258,20.258,0,0,0,5.38-1.446,13.369,13.369,0,0,0,5.481-3.687,11.221,11.221,0,0,0,2.49-7.373,11.6,11.6,0,0,0-9.217-10.515C2971.1,1959.765,2968.257,1959.316,2966.456,1961.073Z" transform="translate(-2431.118 -1639.268)" fill="#26264f"/>
        <path id="Path_1499" data-name="Path 1499" d="M2962.512,2018.169c1.065-.639,1.873.733,1.372,1.917s-2.183,1.943-3.195,1.231S2961.083,2019.026,2962.512,2018.169Z" transform="translate(-2430.304 -1685.126)" fill="url(#linear-gradient-60)"/>
        <path id="Path_1500" data-name="Path 1500" d="M2665.084,1965.375c-6.523-.66-19.767-.094-20.276-1.983-.083-.309-.074-.809,2.249-3.438,4.647-5.258,7.211-6.2,8.2-9.255a8.585,8.585,0,0,0-.077-5.142c-.011-.012-2.884-3.333-2.893-3.348a8.844,8.844,0,0,0-2.894-3.35,30.571,30.571,0,0,0-8.945-.722c-19.913,1.387-41.852,23.312-38.212,42.048,3.337,17.187,28.43,32.843,56.624,24.162C2669.993,1976.816,2669.529,1965.827,2665.084,1965.375Z" transform="translate(-2148.148 -1622.213)" fill="url(#linear-gradient-61)"/>
        <path id="Path_1501" data-name="Path 1501" d="M3010.207,2383a3.244,3.244,0,0,1-2.364.311c-1.431-.311-3.173-1.491-4.729-1.991s-1.678,1.8.624,2.982a12.819,12.819,0,0,1,5.165,5.352c.871,1.806,3.048-2.179,3.048-2.179Z" transform="translate(-2463.064 -1971.007)" fill="url(#linear-gradient-62)"/>
        <path id="Path_1502" data-name="Path 1502" d="M3024.785,2081.055c3.535-.145,19.594-.426,32.879,11.635,2.671,2.424,15.356,13.939,14.28,30.411-1.289,19.756-21.713,36.487-37.418,34.1a21.413,21.413,0,0,1-8.86-3.605l-2.611-7.391c-.043-5.28,2.845-8.97,4.33-11.011,3.661-5.028,8.883-5.908,9.652-10.364.426-2.466-.775-4.483-1.851-6.287-3.659-6.144-9.5-6.9-12.527-10.044C3019.537,2105.26,3015.965,2097.13,3024.785,2081.055Z" transform="translate(-2476.646 -1734.717)" fill="url(#linear-gradient-63)"/>
        <path id="Path_1503" data-name="Path 1503" d="M2763.291,2166.6h-.051a.386.386,0,0,1-.33-.426c2.273-17.315,5.819-24.728,5.853-24.8a.385.385,0,0,1,.692.336c-.034.073-3.527,7.4-5.782,24.565A.383.383,0,0,1,2763.291,2166.6Z" transform="translate(-2274.915 -1782.062)" fill="#9b305e"/>
      </g>
    </g>
  </g>
</svg>
